<?xml version="1.0" encoding="UTF-8"?>
<svg version="1.1" xmlns="http://www.w3.org/2000/svg" width="500" height="500">
<path d="M0 0 C1.19051154 24.86846332 -7.32473103 48.60978289 -23 68 C-23.89460938 68.76183594 -24.78921875 69.52367187 -25.7109375 70.30859375 C-28.71704624 73.84307997 -28.61869712 76.76209919 -28.5625 81.1875 C-28.83656934 92.42793355 -32.42395943 99.92506402 -39 109 C-43.50416844 105.32993682 -45.76790201 100.25091904 -48 95 C-48 94.34 -48 93.68 -48 93 C-49.010625 93.515625 -50.02125 94.03125 -51.0625 94.5625 C-54.9586629 96.26408951 -57.84292572 95.93322076 -62 95 C-62.33 93.02 -62.66 91.04 -63 89 C-65.64 88.34 -68.28 87.68 -71 87 C-71.77916092 81.97874074 -72.13016601 78.02296004 -71 73 C-77.86386596 70.71204468 -85.28273733 71.61163994 -92 74 C-91.47289246 69.61792685 -89.95723739 67.20915383 -87.1875 63.8125 C-86.50042969 62.95269531 -85.81335938 62.09289062 -85.10546875 61.20703125 C-83.12110897 59.12695096 -81.63885489 58.06147197 -79 57 C-79 56.34 -79 55.68 -79 55 C-78.34 55 -77.68 55 -77 55 C-77 54.34 -77 53.68 -77 53 C-73.61480043 51.76151235 -71.13931934 50.99751215 -67.5 51.0625 C-63.08449675 49.72207937 -62.71597537 48.39989467 -60.5625 44.4375 C-59.68390119 42.63671654 -58.82186635 40.82737316 -58 39 C-57.34 39 -56.68 39 -56 39 C-55.7525 38.278125 -55.505 37.55625 -55.25 36.8125 C-53.87730408 33.72393418 -52.27646704 31.48988582 -50 29 C-49.34 29 -48.68 29 -48 29 C-48 28.34 -48 27.68 -48 27 C-47.34 27 -46.68 27 -46 27 C-46 26.34 -46 25.68 -46 25 C-45.34 25 -44.68 25 -44 25 C-44 24.34 -44 23.68 -44 23 C-43.34 23 -42.68 23 -42 23 C-42 22.34 -42 21.68 -42 21 C-40.57421875 19.7109375 -40.57421875 19.7109375 -38.6875 18.375 C-38.07261719 17.92898437 -37.45773437 17.48296875 -36.82421875 17.0234375 C-35 16 -35 16 -32 16 C-32 15.34 -32 14.68 -32 14 C-29.91796875 12.4921875 -29.91796875 12.4921875 -27.1875 10.875 C-26.29417969 10.33617187 -25.40085937 9.79734375 -24.48046875 9.2421875 C-22 8 -22 8 -19 8 C-19 7.34 -19 6.68 -19 6 C-15.66666667 4.66666667 -12.33333333 3.33333333 -9 2 C-8.14792969 1.62617188 -7.29585938 1.25234375 -6.41796875 0.8671875 C-4 0 -4 0 0 0 Z M-35 31 C-35 31.66 -35 32.32 -35 33 C-35.66 33 -36.32 33 -37 33 C-37.30788712 36.92556076 -37.30854114 39.3957736 -35.5 42.9375 C-32.64087822 45.29627547 -30.67893885 45.73700044 -26.9765625 45.48046875 C-23.42362679 44.61681046 -21.97046018 42.98747189 -20 40 C-19.6690684 36.39969811 -19.6690684 36.39969811 -21 33 C-23.18498756 30.46808501 -23.18498756 30.46808501 -26 29 C-29.79557881 29 -31.62902617 29.50178941 -35 31 Z " fill="#ECEBE6" transform="translate(431,135)"/>
<path d="M0 0 C0.66668701 0.00008057 1.33337402 0.00016113 2.02026367 0.00024414 C4.02396745 -0.00191787 6.02763238 -0.02035551 8.03125 -0.0390625 C19.32794785 -0.05615281 28.86283447 1.12947092 37.75585938 8.68164062 C43.66344411 14.88683668 46.18168451 22.79300967 46.43164062 31.24804688 C46.01589507 41.61486344 42.8600959 49.36506413 35.48242188 56.68554688 C28.60732475 62.74862465 22.08633478 64.32251689 13.16210938 64.28320312 C11.86982422 64.27998047 10.57753906 64.27675781 9.24609375 64.2734375 C7.89127536 64.26508352 6.53645765 64.2566186 5.18164062 64.24804688 C3.80729328 64.24302687 2.43294418 64.23846484 1.05859375 64.234375 C-2.29626861 64.22260355 -5.65104159 64.20615971 -9.00585938 64.18554688 C-10.08933683 52.22293415 -10.3280996 40.2526146 -10.56347656 28.24926758 C-10.6316131 24.83528159 -10.70910813 21.42158581 -10.78710938 18.0078125 C-10.83194069 15.8418084 -10.87623196 13.67579305 -10.91992188 11.50976562 C-10.94381989 10.48703049 -10.9677179 9.46429535 -10.99234009 8.41056824 C-11.00920868 7.47481461 -11.02607727 6.53906097 -11.04345703 5.57495117 C-11.06042633 4.74891891 -11.07739563 3.92288666 -11.09487915 3.07182312 C-10.85923513 -1.921334 -3.68719567 0.01685361 0 0 Z M2.99414062 12.18554688 C2.89303709 15.13090258 2.85444783 18.05232247 2.86132812 20.99804688 C2.8603714 21.88210205 2.85941467 22.76615723 2.85842896 23.67700195 C2.85774711 25.54996817 2.85960169 27.42293673 2.86376953 29.29589844 C2.86911773 32.17323075 2.86382469 35.05040695 2.85742188 37.92773438 C2.85808266 39.74283889 2.85936382 41.5579433 2.86132812 43.37304688 C2.85930389 44.23969971 2.85727966 45.10635254 2.85519409 45.99926758 C2.48153649 49.90557907 2.48153649 49.90557907 3.99414062 53.18554688 C10.85965564 53.90677269 17.7776337 53.3094197 23.99414062 50.18554688 C28.94450827 46.12276825 32.13730662 41.61180191 32.99414062 35.18554688 C33.05048207 28.22737852 32.8280621 22.45891575 27.99414062 17.18554688 C27.33414063 17.18554688 26.67414063 17.18554688 25.99414062 17.18554688 C25.99414062 16.52554688 25.99414062 15.86554688 25.99414062 15.18554688 C20.81768172 12.18935361 8.0445205 7.135167 2.99414062 12.18554688 Z " fill="#DFDED9" transform="translate(117.005859375,227.814453125)"/>
<path d="M0 0 C0.33 0.99 0.66 1.98 1 3 C2.27875 3.0825 3.5575 3.165 4.875 3.25 C7.09375 3.515625 7.09375 3.515625 9 4 C10.375 6 10.375 6 11 8 C13.39037375 9.19518688 15.02401816 9.10184438 17.6875 9.1875 C23.3895287 9.73798404 26.38337189 11.62149338 30 16 C33.65239712 20.94093316 35.85096773 25.55157271 35.5 31.78125 C34.62011343 35.68574666 32.66990603 39.03074087 30 42 C29.34 42 28.68 42 28 42 C28 42.66 28 43.32 28 44 C27.34 44 26.68 44 26 44 C26.58803797 47.02419525 27.22678118 50.01758453 28 53 C28.66 53 29.32 53 30 53 C33 58.625 33 58.625 33 62 C33.66 62 34.32 62 35 62 C36.4606285 64.64738916 37 65.89448334 37 69 C35.06318839 69.08107583 33.1254066 69.13922475 31.1875 69.1875 C30.10855469 69.22230469 29.02960938 69.25710938 27.91796875 69.29296875 C25 69 25 69 23.3671875 67.890625 C21.41850374 65.19587375 19.65186277 62.40916916 17.9375 59.5625 C17.58623047 58.98951172 17.23496094 58.41652344 16.87304688 57.82617188 C14.07085313 53.22294623 14.07085313 53.22294623 13.25390625 50.65234375 C12.1389887 48.82238681 12.1389887 48.82238681 10.10131836 48.53735352 C8.07646988 48.27600395 6.03740937 48.13144577 4 48 C4.00523682 48.60062256 4.01047363 49.20124512 4.01586914 49.82006836 C4.03658014 52.52586838 4.04964125 55.23165177 4.0625 57.9375 C4.07087891 58.88302734 4.07925781 59.82855469 4.08789062 60.80273438 C4.09111328 61.70185547 4.09433594 62.60097656 4.09765625 63.52734375 C4.10289307 64.35999756 4.10812988 65.19265137 4.11352539 66.05053711 C4 68 4 68 3 69 C1.16884117 69.09851171 -0.66619933 69.12972629 -2.5 69.125 C-3.5003125 69.12757813 -4.500625 69.13015625 -5.53125 69.1328125 C-8 69 -8 69 -9 68 C-9.11454469 66.28315984 -9.15962139 64.5616337 -9.17700195 62.84106445 C-9.18983719 61.73934402 -9.20267242 60.6376236 -9.21589661 59.5025177 C-9.22328354 58.30156967 -9.23067047 57.10062164 -9.23828125 55.86328125 C-9.246353 54.63594772 -9.25442474 53.4086142 -9.26274109 52.14408875 C-9.27660444 49.53886334 -9.28731646 46.9336196 -9.29516602 44.32836914 C-9.30836537 40.34688812 -9.35621752 36.36602112 -9.40039062 32.38476562 C-9.41051929 29.85677696 -9.41903485 27.32878121 -9.42578125 24.80078125 C-9.44328934 23.60995438 -9.46079742 22.4191275 -9.47883606 21.19221497 C-9.46241463 14.91970901 -9.44711255 10.66235383 -5 6 C-4.34 6 -3.68 6 -3 6 C-2.814375 5.071875 -2.814375 5.071875 -2.625 4.125 C-2 2 -2 2 0 0 Z M4 16 C4 22.93 4 29.86 4 37 C13.01975068 37.55027423 13.01975068 37.55027423 20 34 C22.25210196 30.82843335 22.25210196 30.82843335 23 27 C21.80379608 23.01265359 20.4566102 19.48875934 17 17 C12.23197052 15.63619656 12.23197052 15.63619656 4 16 Z " fill="#DFDED9" transform="translate(357,223)"/>
<path d="M0 0 C1.65322266 0.01740234 1.65322266 0.01740234 3.33984375 0.03515625 C4.44457031 0.04417969 5.54929687 0.05320313 6.6875 0.0625 C7.54214844 0.07410156 8.39679688 0.08570313 9.27734375 0.09765625 C12.05768386 6.49353746 14.66501137 12.81612729 16.50390625 19.55078125 C17.32254722 22.24650808 18.29653315 24.86406099 19.29638672 27.49707031 C21.33051063 32.88967556 23.30175536 38.30494419 25.25830078 43.72607422 C25.77412432 45.14909216 26.29403385 46.57063515 26.81787109 47.99072266 C27.58021716 50.05926916 28.32855828 52.13242105 29.07421875 54.20703125 C29.52120117 55.43389648 29.96818359 56.66076172 30.42871094 57.92480469 C31.2359568 60.94291956 31.43130758 62.25780959 30.27734375 65.09765625 C28.48600397 65.15157618 26.69420476 65.19041196 24.90234375 65.22265625 C23.90460938 65.24585938 22.906875 65.2690625 21.87890625 65.29296875 C19.27734375 65.09765625 19.27734375 65.09765625 17.27734375 63.09765625 C15.77826409 59.14752663 14.56252709 55.12456406 13.27734375 51.09765625 C6.34734375 50.76765625 -0.58265625 50.43765625 -7.72265625 50.09765625 C-8.38265625 53.39765625 -9.04265625 56.69765625 -9.72265625 60.09765625 C-10.9609375 63.203125 -10.9609375 63.203125 -12.72265625 65.09765625 C-15.640625 65.5859375 -15.640625 65.5859375 -18.91015625 65.41015625 C-19.99683594 65.36503906 -21.08351563 65.31992187 -22.203125 65.2734375 C-23.03457031 65.21542969 -23.86601562 65.15742188 -24.72265625 65.09765625 C-24.30880644 59.51068376 -23.07898001 55.19372284 -20.890625 50.05859375 C-19.48825562 46.5034232 -18.38440571 42.87936954 -17.28515625 39.22265625 C-15.53202194 33.44060057 -13.47022902 27.94268043 -11.0546875 22.3984375 C-9.01419805 17.34209267 -7.35819834 12.16425567 -5.68969727 6.97509766 C-3.47291444 0.12456651 -3.47291444 0.12456651 0 0 Z M3.27734375 20.09765625 C-0.05118652 26.46387433 -2.72265625 31.75683749 -2.72265625 39.09765625 C1.23734375 39.09765625 5.19734375 39.09765625 9.27734375 39.09765625 C8.67031743 32.42036675 6.50102981 26.39637629 4.27734375 20.09765625 C3.94734375 20.09765625 3.61734375 20.09765625 3.27734375 20.09765625 Z " fill="#D9D8D3" transform="translate(424.72265625,226.90234375)"/>
<path d="M0 0 C1.65322266 0.01740234 1.65322266 0.01740234 3.33984375 0.03515625 C4.44457031 0.04417969 5.54929688 0.05320313 6.6875 0.0625 C7.54214844 0.07410156 8.39679688 0.08570313 9.27734375 0.09765625 C11.68768142 5.84820805 13.81867471 11.562012 15.46875 17.578125 C16.30197354 20.17440125 17.36153172 22.62270728 18.4543457 25.1184082 C20.01728097 28.87714928 21.27681092 32.74616754 22.58984375 36.59765625 C25.22354003 44.25243326 28.07968609 51.76224777 31.2109375 59.2265625 C32.27734375 62.09765625 32.27734375 62.09765625 32.27734375 65.09765625 C30.17492772 65.23261876 28.07004765 65.32962932 25.96484375 65.41015625 C24.79308594 65.46816406 23.62132812 65.52617187 22.4140625 65.5859375 C19.27734375 65.09765625 19.27734375 65.09765625 17.546875 63.140625 C15.9069553 59.20986364 14.62420015 55.13822544 13.27734375 51.09765625 C6.67734375 51.09765625 0.07734375 51.09765625 -6.72265625 51.09765625 C-8.37265625 55.71765625 -10.02265625 60.33765625 -11.72265625 65.09765625 C-16.01265625 65.09765625 -20.30265625 65.09765625 -24.72265625 65.09765625 C-23.98652975 61.41702373 -23.15988623 57.89287748 -22.16015625 54.28515625 C-21.89074219 53.30933594 -21.62132812 52.33351563 -21.34375 51.328125 C-21.13878906 50.59207031 -20.93382812 49.85601562 -20.72265625 49.09765625 C-20.06265625 49.09765625 -19.40265625 49.09765625 -18.72265625 49.09765625 C-18.61695313 47.96457031 -18.51125 46.83148438 -18.40234375 45.6640625 C-17.80418879 40.89666252 -16.42116224 36.55994544 -14.84765625 32.03515625 C-14.59113281 31.27138672 -14.33460938 30.50761719 -14.0703125 29.72070312 C-12.8912833 26.25767516 -11.63579346 22.89534571 -10.19140625 19.53125 C-8.6014943 15.81440796 -7.32903405 12.06881159 -6.09765625 8.22265625 C-3.50165262 0.1255973 -3.50165262 0.1255973 0 0 Z M2.27734375 20.09765625 C2.09558594 20.71511719 1.91382813 21.33257812 1.7265625 21.96875 C0.01980904 27.71919627 -1.79833489 33.41632652 -3.72265625 39.09765625 C0.89734375 39.09765625 5.51734375 39.09765625 10.27734375 39.09765625 C9.65859375 37.07640625 9.03984375 35.05515625 8.40234375 32.97265625 C7.88027344 31.26722656 7.88027344 31.26722656 7.34765625 29.52734375 C6.36237842 26.37013961 5.33461839 23.23138019 4.27734375 20.09765625 C3.61734375 20.09765625 2.95734375 20.09765625 2.27734375 20.09765625 Z " fill="#DEDDD8" transform="translate(212.72265625,226.90234375)"/>
<path d="M0 0 C1.09570312 0.00902344 2.19140625 0.01804688 3.3203125 0.02734375 C4.58488281 0.04474609 4.58488281 0.04474609 5.875 0.0625 C13.29542476 19.83608983 13.29542476 19.83608983 15.171875 26.859375 C15.97308461 29.36983177 17.00921198 31.74904356 18.06347656 34.16210938 C19.43803188 37.38098381 20.65391685 40.65796308 21.875 43.9375 C22.13555176 44.63641357 22.39610352 45.33532715 22.66455078 46.05541992 C27.875 60.10147455 27.875 60.10147455 27.875 64.0625 C23.585 64.0625 19.295 64.0625 14.875 64.0625 C12.47538859 58.95028439 11.72395224 56.00516566 10.875 50.0625 C-0.015 49.5675 -0.015 49.5675 -11.125 49.0625 C-12.115 52.0325 -13.105 55.0025 -14.125 58.0625 C-14.785 60.0425 -15.445 62.0225 -16.125 64.0625 C-20.415 64.0625 -24.705 64.0625 -29.125 64.0625 C-27.6503504 56.24769024 -25.03480185 49.09952385 -22.1875 41.6875 C-19.36708332 34.33060524 -16.75587753 27.06885837 -14.7800293 19.43847656 C-13.93673634 16.37961444 -12.78250202 13.52439873 -11.5 10.625 C-9.7940663 6.78632805 -9.7940663 6.78632805 -8.6015625 2.77734375 C-8.36566406 1.92849609 -8.36566406 1.92849609 -8.125 1.0625 C-5.36047967 -0.31976016 -3.0788637 -0.03275387 0 0 Z M-1.125 19.0625 C-1.39054687 19.72636719 -1.65609375 20.39023438 -1.9296875 21.07421875 C-5.125 29.0625 -5.125 29.0625 -6.2578125 31.58203125 C-7.4000161 34.4111973 -7.4000161 34.4111973 -7.125 39.0625 C-2.835 39.0625 1.455 39.0625 5.875 39.0625 C4.23373462 32.18481652 2.52214293 25.61733011 -0.125 19.0625 C-0.455 19.0625 -0.785 19.0625 -1.125 19.0625 Z " fill="#DDDCD7" transform="translate(71.125,227.9375)"/>
<path d="M0 0 C0 0.66 0 1.32 0 2 C0.66 2 1.32 2 2 2 C2 2.66 2 3.32 2 4 C2.639375 4.2475 3.27875 4.495 3.9375 4.75 C6 6 6 6 6.75 8.125 C6.8325 8.74375 6.915 9.3625 7 10 C2.73700543 14.01939488 2.73700543 14.01939488 -0.375 13.9375 C-3 13 -3 13 -6.375 11.4375 C-10.29505398 9.88299584 -12.82587454 9.52745749 -17 10 C-19.50098982 11.01990794 -19.50098982 11.01990794 -21 13 C-21.75021244 15.45632332 -21.75021244 15.45632332 -21 18 C-17.10540088 21.77499531 -13.02287153 23.3133531 -8 25 C-1.01378176 27.34592568 4.62479908 29.92079377 8.26953125 36.80859375 C10.24169515 42.72508546 9.99944678 48.92707334 7.3125 54.5 C1.99439965 60.24929767 -2.88397729 63.16092063 -10.765625 63.9609375 C-18.41700431 64.09470287 -25.94515446 61.72382346 -32 57 C-33.25 54.8359375 -33.25 54.8359375 -34 53 C-34.66 53 -35.32 53 -36 53 C-34.5 50 -34.5 50 -33 47 C-32.34 47 -31.68 47 -31 47 C-31 46.34 -31 45.68 -31 45 C-29.35 45 -27.7 45 -26 45 C-26 45.66 -26 46.32 -26 47 C-25.34 47 -24.68 47 -24 47 C-24 47.66 -24 48.32 -24 49 C-17.78164569 51.03048304 -12.72861212 52.3395005 -6.5625 49.3125 C-3.79736512 47.27942751 -3.79736512 47.27942751 -3.5 44.5 C-4.01885762 41.90571188 -4.54705898 40.20883245 -6 38 C-8.10407894 37.22523221 -8.10407894 37.22523221 -10.5625 37 C-18.86558129 35.62412918 -25.4478115 32.21500718 -32 27 C-35.00644779 22.49032832 -35.48936359 17.25638242 -34.68359375 11.89453125 C-33.85863793 8.84804086 -32.75834629 6.63751944 -31 4 C-30.34 4 -29.68 4 -29 4 C-29 3.34 -29 2.68 -29 2 C-20.26420838 -3.70500677 -9.6440925 -3.70926635 0 0 Z " fill="#DFDED9" transform="translate(284,229)"/>
<path d="M0 0 C6.24796254 -0.02464455 12.49589703 -0.04283343 18.74389648 -0.05493164 C20.87118014 -0.05997298 22.99846031 -0.06680591 25.12573242 -0.07543945 C28.17627826 -0.08751379 31.22677845 -0.09323014 34.27734375 -0.09765625 C35.71327126 -0.10539818 35.71327126 -0.10539818 37.1782074 -0.11329651 C38.49946373 -0.11340981 38.49946373 -0.11340981 39.84741211 -0.11352539 C40.62684677 -0.115746 41.40628143 -0.11796661 42.20933533 -0.12025452 C44 0 44 0 45 1 C45.14310287 4.6691577 45.04221662 8.32715441 45 12 C39.72 12 34.44 12 29 12 C29.00785522 14.35499634 29.00785522 14.35499634 29.01586914 16.75756836 C29.03391143 22.5589949 29.04542917 28.36041894 29.05493164 34.16186523 C29.05997363 36.67716895 29.06680703 39.19246972 29.07543945 41.70776367 C29.08751094 45.31429775 29.09322949 48.92079323 29.09765625 52.52734375 C29.10281754 53.65961899 29.10797882 54.79189423 29.11329651 55.95848083 C29.11340981 57.51998619 29.11340981 57.51998619 29.11352539 59.11303711 C29.115746 60.03459091 29.11796661 60.95614471 29.12025452 61.90562439 C29 64 29 64 28 65 C26.16884117 65.09851171 24.33380067 65.12972629 22.5 65.125 C21.4996875 65.12757813 20.499375 65.13015625 19.46875 65.1328125 C17 65 17 65 16 64 C15.90659566 62.37325222 15.88254829 60.74245949 15.88647461 59.11303711 C15.88655014 58.07203354 15.88662567 57.03102997 15.88670349 55.95848083 C15.89186478 54.8262056 15.89702606 53.69393036 15.90234375 52.52734375 C15.9037587 51.37456436 15.90517365 50.22178497 15.90663147 49.03407288 C15.91224995 45.33518936 15.92480558 41.63636536 15.9375 37.9375 C15.94251262 35.43684983 15.94707594 32.93619871 15.95117188 30.43554688 C15.96222538 24.29034149 15.9795024 18.14518085 16 12 C10.72 12 5.44 12 0 12 C0 8.04 0 4.08 0 0 Z " fill="#D5D4CF" transform="translate(297,227)"/>
<path d="M0 0 C0.94713156 19.78452601 -3.939285 40.2954011 -15 57 C-15.99 57.495 -15.99 57.495 -17 58 C-18 55 -18 55 -17.0625 52.8125 C-16.711875 52.214375 -16.36125 51.61625 -16 51 C-16.66 51 -17.32 51 -18 51 C-17.67 48.69 -17.34 46.38 -17 44 C-17.55171875 44.50144531 -18.1034375 45.00289062 -18.671875 45.51953125 C-21.56823776 47.36134582 -22.90169799 47.17212266 -26.25 46.6875 C-27.14203125 46.56761719 -28.0340625 46.44773438 -28.953125 46.32421875 C-29.62859375 46.21722656 -30.3040625 46.11023438 -31 46 C-31 45.67 -31 45.34 -31 45 C-28.98177083 44.57682292 -26.96354167 44.15364583 -24.9453125 43.73046875 C-22.62953451 43.07691162 -22.62953451 43.07691162 -21 40 C-21.12897122 36.3888059 -21.30345261 33.92872985 -23.5 31 C-27.37913565 29.44834574 -30.96231384 30.28391463 -35 31 C-35 31.66 -35 32.32 -35 33 C-36.485 32.505 -36.485 32.505 -38 32 C-38.6875 29.9375 -38.6875 29.9375 -39 28 C-39.61875 28.350625 -40.2375 28.70125 -40.875 29.0625 C-41.926875 29.5265625 -41.926875 29.5265625 -43 30 C-43.66 29.67 -44.32 29.34 -45 29 C-45.33 29.99 -45.66 30.98 -46 32 C-48.9375 33.75 -48.9375 33.75 -52 35 C-52.66 34.67 -53.32 34.34 -54 34 C-52.71937515 32.2925002 -51.38232443 30.62626404 -50 29 C-49.34 29 -48.68 29 -48 29 C-48 28.34 -48 27.68 -48 27 C-47.34 27 -46.68 27 -46 27 C-46 26.34 -46 25.68 -46 25 C-45.34 25 -44.68 25 -44 25 C-44 24.34 -44 23.68 -44 23 C-43.34 23 -42.68 23 -42 23 C-42 22.34 -42 21.68 -42 21 C-40.57421875 19.7109375 -40.57421875 19.7109375 -38.6875 18.375 C-38.07261719 17.92898437 -37.45773437 17.48296875 -36.82421875 17.0234375 C-35 16 -35 16 -32 16 C-32 15.34 -32 14.68 -32 14 C-29.91796875 12.4921875 -29.91796875 12.4921875 -27.1875 10.875 C-26.29417969 10.33617187 -25.40085937 9.79734375 -24.48046875 9.2421875 C-22 8 -22 8 -19 8 C-19 7.34 -19 6.68 -19 6 C-15.66666667 4.66666667 -12.33333333 3.33333333 -9 2 C-8.14792969 1.62617188 -7.29585938 1.25234375 -6.41796875 0.8671875 C-4 0 -4 0 0 0 Z " fill="#E5E4DF" transform="translate(431,135)"/>
<path d="M0 0 C5.28218407 1.3982252 8.09192957 4.57017217 11 9 C15.65870315 18.1167237 16.40393989 27.36139073 13.875 37.25 C10.8634159 46.05853002 4.76218932 51.96030469 -2.9375 56.875 C-6.73129802 58.26864009 -9.11563629 57.99013193 -13 57 C-13.33 56.34 -13.66 55.68 -14 55 C-14.99 55.495 -14.99 55.495 -16 56 C-15.34 53.69 -14.68 51.38 -14 49 C-18.62 49 -23.24 49 -28 49 C-27.67 48.34 -27.34 47.68 -27 47 C-26.39414063 47.03480469 -25.78828125 47.06960938 -25.1640625 47.10546875 C-18.11863822 47.33309015 -10.83469546 47.06617179 -5.109375 42.48828125 C-0.84979017 37.88751609 1.00889441 33.37987684 0.9921875 27.03125 C0.6903445 21.62432318 0.49941741 18.25400877 -3 14 C-3 13.34 -3 12.68 -3 12 C-3.66 12 -4.32 12 -5 12 C-5 11.34 -5 10.68 -5 10 C-6.98 9.34 -8.96 8.68 -11 8 C-8.92446352 7.4465236 -7.15634036 7 -5 7 C-4.505 6.505 -4.01 6.01 -3.5 5.5 C-3.005 5.005 -2.51 4.51 -2 4 C-1.34 4 -0.68 4 0 4 C0 2.68 0 1.36 0 0 Z " fill="#D9D8D4" transform="translate(148,233)"/>
<path d="M0 0 C1.65322266 0.01740234 1.65322266 0.01740234 3.33984375 0.03515625 C4.99693359 0.04869141 4.99693359 0.04869141 6.6875 0.0625 C7.54214844 0.07410156 8.39679688 0.08570313 9.27734375 0.09765625 C12.09518702 6.57980954 14.67865638 12.98826998 16.58984375 19.796875 C17.24396061 21.98593655 18.03578692 24.04792398 18.90234375 26.16015625 C20.5205291 30.34188786 21.2401183 34.61198921 21.27734375 39.09765625 C20.94734375 39.75765625 20.61734375 40.41765625 20.27734375 41.09765625 C18.95734375 41.09765625 17.63734375 41.09765625 16.27734375 41.09765625 C14.87326656 43.90581062 14.27734375 45.94005775 14.27734375 49.09765625 C7.34734375 49.09765625 0.41734375 49.09765625 -6.72265625 49.09765625 C-7.6565741 44.42806698 -7.53183281 41.68299008 -6.72265625 37.09765625 C-6.06265625 37.09765625 -5.40265625 37.09765625 -4.72265625 37.09765625 C-4.39265625 35.77765625 -4.06265625 34.45765625 -3.72265625 33.09765625 C-3.72265625 35.40765625 -3.72265625 37.71765625 -3.72265625 40.09765625 C0.89734375 40.09765625 5.51734375 40.09765625 10.27734375 40.09765625 C9.84421875 38.8446875 9.41109375 37.59171875 8.96484375 36.30078125 C8.4020256 34.64984801 7.83954311 32.99880031 7.27734375 31.34765625 C6.99117188 30.52265625 6.705 29.69765625 6.41015625 28.84765625 C6.13945312 28.0484375 5.86875 27.24921875 5.58984375 26.42578125 C5.33847656 25.69262695 5.08710938 24.95947266 4.828125 24.20410156 C4.27734375 22.09765625 4.27734375 22.09765625 4.27734375 18.09765625 C3.51421875 18.42765625 2.75109375 18.75765625 1.96484375 19.09765625 C-0.72265625 20.09765625 -0.72265625 20.09765625 -3.72265625 20.09765625 C-4.72265625 18.09765625 -4.72265625 18.09765625 -4.72265625 15.09765625 C-5.38265625 15.09765625 -6.04265625 15.09765625 -6.72265625 15.09765625 C-6.25859375 14.13859375 -6.25859375 14.13859375 -5.78515625 13.16015625 C-4.59451118 9.72829692 -4.26104218 6.59122979 -3.96875 2.98828125 C-3.57373087 -0.04646888 -3.11804886 0.11183819 0 0 Z " fill="#E3E1DD" transform="translate(424.72265625,226.90234375)"/>
<path d="M0 0 C0 0.66 0 1.32 0 2 C0.66 2 1.32 2 2 2 C2 2.66 2 3.32 2 4 C2.639375 4.2475 3.27875 4.495 3.9375 4.75 C6 6 6 6 6.75 8.125 C6.8325 8.74375 6.915 9.3625 7 10 C2.73700543 14.01939488 2.73700543 14.01939488 -0.375 13.9375 C-3 13 -3 13 -6.375 11.4375 C-10.29505398 9.88299584 -12.82587454 9.52745749 -17 10 C-19.52040427 10.95173938 -19.52040427 10.95173938 -21 13 C-21.33397787 16.12586875 -21.33397787 16.12586875 -21 19 C-21.66 19 -22.32 19 -23 19 C-23 15.37 -23 11.74 -23 8 C-23.99 8 -24.98 8 -26 8 C-26 7.34 -26 6.68 -26 6 C-26.66 6 -27.32 6 -28 6 C-28 6.99 -28 7.98 -28 9 C-29.65 9 -31.3 9 -33 9 C-32.34 7.35 -31.68 5.7 -31 4 C-30.34 4 -29.68 4 -29 4 C-29 3.34 -29 2.68 -29 2 C-20.26420838 -3.70500677 -9.6440925 -3.70926635 0 0 Z " fill="#E3E1DD" transform="translate(284,229)"/>
<path d="M0 0 C3.33325754 -0.05874776 6.66637938 -0.09384467 10 -0.125 C10.93457031 -0.14175781 11.86914062 -0.15851563 12.83203125 -0.17578125 C19.99077029 -0.22584236 26.66307389 0.30345977 33 4 C33.375 6.1875 33.375 6.1875 33 9 C31.16038352 10.99022836 29.20813852 12.38989899 27 14 C26.67 13.67 26.34 13.34 26 13 C24.34327866 12.77225462 22.67812337 12.60516196 21.01171875 12.46484375 C19.99529297 12.37783203 18.97886719 12.29082031 17.93164062 12.20117188 C16.86107422 12.11416016 15.79050781 12.02714844 14.6875 11.9375 C13.62853516 11.84662109 12.56957031 11.75574219 11.47851562 11.66210938 C7.29700753 11.31078873 3.19921297 11 -1 11 C-2.04575068 6.50327206 -1.86604344 4.18079199 0 0 Z " fill="#E6E5E0" transform="translate(115,228)"/>
<path d="M0 0 C1.65 0 3.3 0 5 0 C5 0.66 5 1.32 5 2 C5.66 2 6.32 2 7 2 C7 2.66 7 3.32 7 4 C9.31 4.66 11.62 5.32 14 6 C13.01 6.495 13.01 6.495 12 7 C12.99 8.485 12.99 8.485 14 10 C14.66 9.67 15.32 9.34 16 9 C16.33 10.32 16.66 11.64 17 13 C17.99 13 18.98 13 20 13 C20 13.66 20 14.32 20 15 C21.98 15.66 23.96 16.32 26 17 C26 17.33 26 17.66 26 18 C16.57392379 19.74556967 9.1644701 18.03747452 0.8125 13.4140625 C-1.24694398 11.80734112 -2.02129135 10.39579721 -3 8 C-3.66 8 -4.32 8 -5 8 C-4 6 -3 4 -2 2 C-1.34 2 -0.68 2 0 2 C0 1.34 0 0.68 0 0 Z " fill="#D8D8D4" transform="translate(253,274)"/>
<path d="M0 0 C0.66 1.32 1.32 2.64 2 4 C1.01 5.485 1.01 5.485 0 7 C0.99 7.66 1.98 8.32 3 9 C2.67 9.99 2.34 10.98 2 12 C4.83967231 12 7.23735711 11.59732819 10 11 C8.61735776 15.32443425 7.23327822 19.60320181 5.375 23.75 C3.78421534 27.20594338 3.78421534 27.20594338 3 32 C6.96 32 10.92 32 15 32 C15.33 31.34 15.66 30.68 16 30 C16 30.99 16 31.98 16 33 C11.38 33 6.76 33 2 33 C1.67 30.69 1.34 28.38 1 26 C-0.32 25.67 -1.64 25.34 -3 25 C-3.33 25.99 -3.66 26.98 -4 28 C-5.65 27.67 -7.3 27.34 -9 27 C-8.25390255 23.77685901 -7.2449651 20.69990027 -6.15234375 17.578125 C-5.79462891 16.55332031 -5.43691406 15.52851563 -5.06835938 14.47265625 C-4.69517578 13.40917969 -4.32199219 12.34570312 -3.9375 11.25 C-3.37192383 9.63158203 -3.37192383 9.63158203 -2.79492188 7.98046875 C-1.86485074 5.31975891 -0.93315346 2.65963006 0 0 Z " fill="#C2C1BD" transform="translate(419,234)"/>
<path d="M0 0 C2.9375 0.75 2.9375 0.75 6 2 C6.3721042 3.32303717 6.70630173 4.65737935 7 6 C9.49034386 7.29660434 9.49034386 7.29660434 12 8 C12.33 11.3 12.66 14.6 13 18 C12.01 18.66 11.02 19.32 10 20 C9.67 20.66 9.34 21.32 9 22 C8.34 22 7.68 22 7 22 C7 22.66 7 23.32 7 24 C5.68 24 4.36 24 3 24 C3.33 24.99 3.66 25.98 4 27 C3.34 27 2.68 27 2 27 C1.67 28.32 1.34 29.64 1 31 C0.01 31 -0.98 31 -2 31 C-1.67 30.34 -1.34 29.68 -1 29 C-2.32 29.33 -3.64 29.66 -5 30 C-5.33 28.02 -5.66 26.04 -6 24 C-1.25 23 -1.25 23 1 23 C1 22.01 1 21.02 1 20 C1.71817272 18.04134712 2.43997063 16.08372445 3.19921875 14.140625 C4.32277315 11.13717228 5.16199387 8.09417647 6 5 C4.02 5.66 2.04 6.32 0 7 C-0.99 5.68 -1.98 4.36 -3 3 C-2.01 2.67 -1.02 2.34 0 2 C0 1.34 0 0.68 0 0 Z " fill="#EEEDE8" transform="translate(378,236)"/>
<path d="M0 0 C0.99 0.33 1.98 0.66 3 1 C4.04691167 3.30615472 4.89744996 5.48336816 5.6875 7.875 C5.91244141 8.51308594 6.13738281 9.15117187 6.36914062 9.80859375 C7.350435 12.66597979 8 14.95856532 8 18 C3.71 18 -0.58 18 -5 18 C-8.78289474 9.77631579 -8.78289474 9.77631579 -9 5 C-7.5625 3.125 -7.5625 3.125 -6 2 C-5.34 2.33 -4.68 2.66 -4 3 C-3.401875 2.484375 -2.80375 1.96875 -2.1875 1.4375 C-1.465625 0.963125 -0.74375 0.48875 0 0 Z " fill="#D7D6D2" transform="translate(91,274)"/>
<path d="M0 0 C2.0300807 1.87266803 2.92299743 2.69968998 3.625 5.4375 C5.81822277 9.52486971 9.79017841 10.449469 14 12 C11.04816899 14.95183101 8.04488053 15.08663988 4 16 C3.34 18.64 2.68 21.28 2 24 C1.34 24 0.68 24 0 24 C-0.433125 22.39125 -0.433125 22.39125 -0.875 20.75 C-2.01301804 17.98624191 -2.7748359 17.12581633 -5.42578125 15.64453125 C-7.92978627 14.66347129 -10.42596639 13.77752235 -13 13 C-12.67 12.34 -12.34 11.68 -12 11 C-10.741875 10.62875 -9.48375 10.2575 -8.1875 9.875 C-5.48116521 8.94697497 -4.26892677 8.37412677 -2.58203125 6.02734375 C-1.61272767 4.0432458 -0.74965146 2.07633728 0 0 Z " fill="#D2D1CE" transform="translate(311,333)"/>
<path d="M0 0 C0.66 0 1.32 0 2 0 C3.25664978 2.90600261 4 4.79604584 4 8 C6.97 8.99 9.94 9.98 13 11 C13 11.66 13 12.32 13 13 C10.03 13.99 7.06 14.98 4 16 C3.7834375 17.1446875 3.7834375 17.1446875 3.5625 18.3125 C3 21 3 21 2 24 C1.34 24 0.68 24 0 24 C-0.350625 22.741875 -0.70125 21.48375 -1.0625 20.1875 C-1.9853858 17.65628409 -2.51276061 16.33240554 -4.7578125 14.80078125 C-6.88680095 13.87959475 -6.88680095 13.87959475 -10 13 C-10 12.01 -10 11.02 -10 10 C-8.906875 9.649375 -7.81375 9.29875 -6.6875 8.9375 C-3.53564713 7.62316459 -2.37683541 6.46435287 -1.0625 3.3125 C-0.711875 2.219375 -0.36125 1.12625 0 0 Z " fill="#D9D8D5" transform="translate(226,150)"/>
<path d="M0 0 C0.33 0 0.66 0 1 0 C1 2.31 1 4.62 1 7 C5.95 7 10.9 7 16 7 C15.01 8.485 15.01 8.485 14 10 C14.32843384 12.06381575 14.32843384 12.06381575 15 14 C15 14.66 15 15.32 15 16 C9.39 16 3.78 16 -2 16 C-2.93391785 11.33041073 -2.80917656 8.58533383 -2 4 C-1.34 4 -0.68 4 0 4 C0 2.68 0 1.36 0 0 Z " fill="#F1F0EC" transform="translate(420,260)"/>
<path d="M0 0 C0.66 0 1.32 0 2 0 C2 0.66 2 1.32 2 2 C3.32 1.67 4.64 1.34 6 1 C5.67 4.96 5.34 8.92 5 13 C5.66 13 6.32 13 7 13 C5.74458443 15.51083114 4.49936512 15.87125446 2 17 C2 16.01 2 15.02 2 14 C0.68 14 -0.64 14 -2 14 C-2 14.66 -2 15.32 -2 16 C-3.32 15.67 -4.64 15.34 -6 15 C-6.76173392 10.6835078 -7.16063604 7.25566547 -6 3 C-2.25 1.875 -2.25 1.875 0 3 C0 2.01 0 1.02 0 0 Z " fill="#E7E6E0" transform="translate(256,235)"/>
<path d="M0 0 C0 0.33 0 0.66 0 1 C-4.62 1.33 -9.24 1.66 -14 2 C-13.01 2.66 -12.02 3.32 -11 4 C-11.33 4.66 -11.66 5.32 -12 6 C-9.525 6.495 -9.525 6.495 -7 7 C-7.99 7.66 -8.98 8.32 -10 9 C-10.33 9.99 -10.66 10.98 -11 12 C-11.680625 12.433125 -12.36125 12.86625 -13.0625 13.3125 C-15.36835266 14.92307226 -15.36835266 14.92307226 -15.25 18.1875 C-15.12625 19.5796875 -15.12625 19.5796875 -15 21 C-15.66 21 -16.32 21 -17 21 C-17 17.37 -17 13.74 -17 10 C-17.99 10 -18.98 10 -20 10 C-20 9.34 -20 8.68 -20 8 C-20.66 8 -21.32 8 -22 8 C-22 8.99 -22 9.98 -22 11 C-23.65 11 -25.3 11 -27 11 C-26.34 9.35 -25.68 7.7 -25 6 C-24.34 6 -23.68 6 -23 6 C-23 5.34 -23 4.68 -23 4 C-15.58521483 -0.84230868 -8.5168236 -0.39922611 0 0 Z " fill="#D0CFCB" transform="translate(278,227)"/>
<path d="M0 0 C0.99 0.33 1.98 0.66 3 1 C3.28875 1.78375 3.5775 2.5675 3.875 3.375 C5.28578816 6.66683904 6.93708862 7.30733845 10 9 C10 9.66 10 10.32 10 11 C9.236875 11.226875 8.47375 11.45375 7.6875 11.6875 C4.45263699 13.26731682 3.58358642 14.83282717 2 18 C1.01 17.67 0.02 17.34 -1 17 C-1 15.68 -1 14.36 -1 13 C-2.98 12.34 -4.96 11.68 -7 11 C-7 10.01 -7 9.02 -7 8 C-6.21625 7.54625 -5.4325 7.0925 -4.625 6.625 C-1.55039988 4.72167612 -1.0093586 3.39511528 0 0 Z " fill="#C4C4C0" transform="translate(159,323)"/>
<path d="M0 0 C8.77578475 0.03408072 8.77578475 0.03408072 11.77734375 2.40234375 C13.125 4.0625 13.125 4.0625 15 7 C14.67 7.66 14.34 8.32 14 9 C12 8 12 8 11 5 C7.99992729 3.29144978 7.99992729 3.29144978 5 2 C5 2.66 5 3.32 5 4 C5.66 4.33 6.32 4.66 7 5 C5.68 5.33 4.36 5.66 3 6 C5.78114056 8.33391203 5.78114056 8.33391203 8.6875 7.625 C9.450625 7.41875 10.21375 7.2125 11 7 C11.33 7.99 11.66 8.98 12 10 C11.02065076 11.67888441 10.01656081 13.34338239 9 15 C7.85727671 18.4883132 7 21.32718141 7 25 C6.34 25.66 5.68 26.32 5 27 C3.68 26.01 2.36 25.02 1 24 C1.639375 23.443125 2.27875 22.88625 2.9375 22.3125 C5.28590287 19.67944224 5.91646559 18.50844512 6 15 C4.64972606 11.58878163 3.13880969 9.16194464 0.75 6.375 C0.1725 5.59125 -0.405 4.8075 -1 4 C-0.609375 1.8515625 -0.609375 1.8515625 0 0 Z " fill="#BEBDB9" transform="translate(373,234)"/>
<path d="M0 0 C0.99 0.33 1.98 0.66 3 1 C2.67 1.99 2.34 2.98 2 4 C3.65 2.68 5.3 1.36 7 0 C8.27208622 0.62244599 9.54261882 1.24806767 10.8125 1.875 C11.52019531 2.22304687 12.22789062 2.57109375 12.95703125 2.9296875 C15 4 15 4 18 6 C13.71 6.66 9.42 7.32 5 8 C5 7.01 5 6.02 5 5 C4.34 5 3.68 5 3 5 C2.13641377 6.78141747 2.13641377 6.78141747 2 9 C3.85432087 11.27144074 3.85432087 11.27144074 6 13 C2.67852297 13 2.02032019 12.57859297 -0.5625 10.6875 C-1.16191406 10.25824219 -1.76132813 9.82898438 -2.37890625 9.38671875 C-4 8 -4 8 -6 5 C-5.67 4.01 -5.34 3.02 -5 2 C-4.01 2.33 -3.02 2.66 -2 3 C-2 2.34 -2 1.68 -2 1 C-1.34 0.67 -0.68 0.34 0 0 Z " fill="#DDDBD7" transform="translate(256,248)"/>
<path d="M0 0 C0.66 0 1.32 0 2 0 C2.66 0.66 3.32 1.32 4 2 C4.99 1.67 5.98 1.34 7 1 C8.39439664 0.93334624 9.79169875 0.91461801 11.1875 0.9375 C13.0746875 0.9684375 13.0746875 0.9684375 15 1 C15.6875 3.25 15.6875 3.25 16 6 C14.26635169 9.12056696 13.44004627 9.85331791 10 11 C3.40816327 9.6122449 3.40816327 9.6122449 1 6 C0.01 5.34 -0.98 4.68 -2 4 C-1.34 2.68 -0.68 1.36 0 0 Z " fill="#EFEDE8" transform="translate(259,253)"/>
<path d="M0 0 C1.67542976 0.28604898 3.34385343 0.61781233 5 1 C4 3 4 3 2 6 C2.99 6 3.98 6 5 6 C5.33 5.34 5.66 4.68 6 4 C7.32 5.32 8.64 6.64 10 8 C10.99 7.01 11.98 6.02 13 5 C13.99 5.33 14.98 5.66 16 6 C14.02 9.63 12.04 13.26 10 17 C9.01 17 8.02 17 7 17 C3.33046726 12.27535988 0.52237211 6.785014 -1 1 C-0.67 0.67 -0.34 0.34 0 0 Z " fill="#CDCCC8" transform="translate(383,226)"/>
<path d="M0 0 C1.32 0 2.64 0 4 0 C4 0.66 4 1.32 4 2 C4.66 2 5.32 2 6 2 C6 2.66 6 3.32 6 4 C6.639375 4.2475 7.27875 4.495 7.9375 4.75 C10 6 10 6 10.75 8.125 C10.87375 9.053125 10.87375 9.053125 11 10 C6.75757576 14 6.75757576 14 3.5625 14 C0.36586704 12.75253348 -2.22376184 11.00147402 -5 9 C-1.86650268 7.95550089 -1.01031744 8.06576355 2 9 C1.51515724 4.35413108 1.51515724 4.35413108 0 0 Z " fill="#EAEAE4" transform="translate(280,229)"/>
<path d="M0 0 C3.89075454 1.29691818 6.52462743 2.66776769 9 6 C8.75 8.75 8.75 8.75 8 11 C7.01 11.33 6.02 11.66 5 12 C4.01 11.34 3.02 10.68 2 10 C-0.62531524 9.83286431 -0.62531524 9.83286431 -3 10 C-3 10.66 -3 11.32 -3 12 C-3.66 12 -4.32 12 -5 12 C-5 11.34 -5 10.68 -5 10 C-6.98 9.34 -8.96 8.68 -11 8 C-8.92446352 7.4465236 -7.15634036 7 -5 7 C-4.505 6.505 -4.01 6.01 -3.5 5.5 C-3.005 5.005 -2.51 4.51 -2 4 C-1.34 4 -0.68 4 0 4 C0 2.68 0 1.36 0 0 Z " fill="#D0D0CC" transform="translate(148,233)"/>
<path d="M0 0 C4.3890815 0.51035831 7.33708062 1.52214277 11 4 C10.071875 4.12375 10.071875 4.12375 9.125 4.25 C6.86527098 4.80603954 6.86527098 4.80603954 5.8125 6.8125 C5.05097541 8.86275851 4.51191071 10.8766834 4 13 C2.39431334 12.71682074 0.79047953 12.42312209 -0.8125 12.125 C-1.70582031 11.96257812 -2.59914063 11.80015625 -3.51953125 11.6328125 C-6 11 -6 11 -9 9 C-7.02 9 -5.04 9 -3 9 C-2.67 8.34 -2.34 7.68 -2 7 C-1.34 6.34 -0.68 5.68 0 5 C-0.66 4.34 -1.32 3.68 -2 3 C-1.34 3 -0.68 3 0 3 C0 2.01 0 1.02 0 0 Z " fill="#CBCAC5" transform="translate(274,254)"/>
<path d="M0 0 C0.66 0.33 1.32 0.66 2 1 C2.6604455 7.34027681 1.83433254 11.24850119 -1.7109375 16.56640625 C-2.13632812 17.03949219 -2.56171875 17.51257813 -3 18 C-3.66 18 -4.32 18 -5 18 C-5 18.66 -5 19.32 -5 20 C-5.66 20 -6.32 20 -7 20 C-7.33 20.99 -7.66 21.98 -8 23 C-10.16666667 16.5 -10.16666667 16.5 -9 13 C-7.68 13 -6.36 13 -5 13 C-4.34 11.02 -3.68 9.04 -3 7 C-1.68 7 -0.36 7 1 7 C0.67 4.69 0.34 2.38 0 0 Z " fill="#DADAD6" transform="translate(390,247)"/>
<path d="M0 0 C2 2 2 2 2 5 C2.66 5 3.32 5 4 5 C4.5625 6.9375 4.5625 6.9375 5 9 C4 10 4 10 1.93359375 10.09765625 C1.10988281 10.08605469 0.28617187 10.07445312 -0.5625 10.0625 C-1.38878906 10.05347656 -2.21507812 10.04445313 -3.06640625 10.03515625 C-3.70449219 10.02355469 -4.34257812 10.01195312 -5 10 C-7.0703125 6.265625 -7.0703125 6.265625 -6.4375 3.875 C-4.59666789 1.47391464 -2.84423926 0.89818082 0 0 Z " fill="#DFDED9" transform="translate(388,280)"/>
<path d="M0 0 C1.03159626 3.09478879 0.97482862 4.52631393 0.5625 7.6875 C0.46066406 8.49574219 0.35882813 9.30398437 0.25390625 10.13671875 C0.17011719 10.75160156 0.08632813 11.36648437 0 12 C0.66 12 1.32 12 2 12 C0.74458443 14.51083114 -0.50063488 14.87125446 -3 16 C-3 15.01 -3 14.02 -3 13 C-4.32 13 -5.64 13 -7 13 C-7 13.66 -7 14.32 -7 15 C-8.32 14.67 -9.64 14.34 -11 14 C-10.67 12.35 -10.34 10.7 -10 9 C-7.36 8.67 -4.72 8.34 -2 8 C-2 7.34 -2 6.68 -2 6 C-2.66 5.67 -3.32 5.34 -4 5 C-2.68 3.35 -1.36 1.7 0 0 Z " fill="#F2F1EC" transform="translate(261,236)"/>
<path d="M0 0 C0.66 0 1.32 0 2 0 C1.649375 1.216875 1.29875 2.43375 0.9375 3.6875 C0.06748654 7.161427 -0.06340265 9.51977315 1 13 C1.2784375 14.1446875 1.2784375 14.1446875 1.5625 15.3125 C1.706875 15.869375 1.85125 16.42625 2 17 C-0.31 16.67 -2.62 16.34 -5 16 C-5.33 14.02 -5.66 12.04 -6 10 C-8.97 9.505 -8.97 9.505 -12 9 C-12 8.67 -12 8.34 -12 8 C-9.36 8 -6.72 8 -4 8 C-3.71125 7.236875 -3.4225 6.47375 -3.125 5.6875 C-2 3 -2 3 0 0 Z " fill="#B8B7B3" transform="translate(374,214)"/>
<path d="M0 0 C1.32 0.33 2.64 0.66 4 1 C4 2.65 4 4.3 4 6 C3.34 6 2.68 6 2 6 C2.33 6.99 2.66 7.98 3 9 C2.21625 8.79375 1.4325 8.5875 0.625 8.375 C-0.24125 8.25125 -1.1075 8.1275 -2 8 C-2.66 8.66 -3.32 9.32 -4 10 C-6.125 9.625 -6.125 9.625 -8 9 C-7.50168276 5.31245243 -6.89932357 3.39509338 -4 1 C-4 1.66 -4 2.32 -4 3 C-3.01 2.67 -2.02 2.34 -1 2 C-0.67 1.34 -0.34 0.68 0 0 Z " fill="#E2E1DC" transform="translate(416,258)"/>
<path d="M0 0 C1.65322266 0.01740234 1.65322266 0.01740234 3.33984375 0.03515625 C4.99693359 0.04869141 4.99693359 0.04869141 6.6875 0.0625 C7.54214844 0.07410156 8.39679688 0.08570313 9.27734375 0.09765625 C9.60734375 1.41765625 9.93734375 2.73765625 10.27734375 4.09765625 C8.95734375 4.42765625 7.63734375 4.75765625 6.27734375 5.09765625 C6.27734375 5.75765625 6.27734375 6.41765625 6.27734375 7.09765625 C3.96734375 6.43765625 1.65734375 5.77765625 -0.72265625 5.09765625 C-0.72265625 4.43765625 -0.72265625 3.77765625 -0.72265625 3.09765625 C-1.71265625 2.43765625 -2.70265625 1.77765625 -3.72265625 1.09765625 C-2.72265625 0.09765625 -2.72265625 0.09765625 0 0 Z M1.27734375 7.09765625 C4.27734375 8.09765625 4.27734375 8.09765625 4.27734375 8.09765625 Z " fill="#F3EFEB" transform="translate(266.72265625,227.90234375)"/>
<path d="M0 0 C2.31 0 4.62 0 7 0 C6.30822192 3.3345258 5.0777496 6.14351193 3.5625 9.1875 C3.13066406 10.06792969 2.69882812 10.94835937 2.25390625 11.85546875 C1 14 1 14 -1 15 C-2 12 -2 12 -1.0625 9.8125 C-0.5365625 8.9153125 -0.5365625 8.9153125 0 8 C-0.66 8 -1.32 8 -2 8 C-1.34 5.36 -0.68 2.72 0 0 Z " fill="#DAD9D5" transform="translate(415,178)"/>
<path d="M0 0 C0.33 0.66 0.66 1.32 1 2 C0.34 2 -0.32 2 -1 2 C-0.67 3.98 -0.34 5.96 0 8 C-0.99 8.66 -1.98 9.32 -3 10 C-3.66 9.67 -4.32 9.34 -5 9 C-5.33 9.99 -5.66 10.98 -6 12 C-8.9375 13.75 -8.9375 13.75 -12 15 C-12.66 14.67 -13.32 14.34 -14 14 C-12.71937515 12.2925002 -11.38232443 10.62626404 -10 9 C-9.34 9 -8.68 9 -8 9 C-8 8.34 -8 7.68 -8 7 C-7.34 7 -6.68 7 -6 7 C-6 6.34 -6 5.68 -6 5 C-5.34 5 -4.68 5 -4 5 C-4 4.34 -4 3.68 -4 3 C-3.34 3 -2.68 3 -2 3 C-2 2.34 -2 1.68 -2 1 C-1.34 0.67 -0.68 0.34 0 0 Z " fill="#BCBBB7" transform="translate(391,155)"/>
<path d="M0 0 C1.4800841 0.11362262 2.95910074 0.24122908 4.4375 0.375 C5.26121094 0.44460938 6.08492188 0.51421875 6.93359375 0.5859375 C7.95646484 0.79089844 7.95646484 0.79089844 9 1 C9.33 1.66 9.66 2.32 10 3 C10.680625 3.45375 11.36125 3.9075 12.0625 4.375 C12.701875 4.91125 13.34125 5.4475 14 6 C14 7.32 14 8.64 14 10 C11.64828869 9.40138258 9.3140622 8.73075648 7 8 C6.67 7.34 6.34 6.68 6 6 C5.34 6.66 4.68 7.32 4 8 C3.67 6.35 3.34 4.7 3 3 C2.01 3.495 2.01 3.495 1 4 C0.67 2.68 0.34 1.36 0 0 Z " fill="#F2F1ED" transform="translate(265,281)"/>
<path d="M0 0 C0.99 0.33 1.98 0.66 3 1 C3 1.99 3 2.98 3 4 C3.66 4.33 4.32 4.66 5 5 C4.34 5 3.68 5 3 5 C2.9175 5.598125 2.835 6.19625 2.75 6.8125 C1.75828276 9.70500863 0.6171205 10.45840847 -2 12 C-4.578125 12.07421875 -4.578125 12.07421875 -7.25 11.6875 C-8.58804687 11.50767578 -8.58804687 11.50767578 -9.953125 11.32421875 C-10.62859375 11.21722656 -11.3040625 11.11023438 -12 11 C-12 10.67 -12 10.34 -12 10 C-9.98177083 9.57682292 -7.96354167 9.15364583 -5.9453125 8.73046875 C-3.62953451 8.07691162 -3.62953451 8.07691162 -2 5 C-1.34 5 -0.68 5 0 5 C0 3.35 0 1.7 0 0 Z " fill="#C7C6C1" transform="translate(412,170)"/>
<path d="M0 0 C8.77578475 0.03408072 8.77578475 0.03408072 11.77734375 2.40234375 C13.125 4.0625 13.125 4.0625 15 7 C14.67 7.66 14.34 8.32 14 9 C12 8 12 8 11 5 C7.99992729 3.29144978 7.99992729 3.29144978 5 2 C5 2.66 5 3.32 5 4 C5.66 4.33 6.32 4.66 7 5 C4.125 5.625 4.125 5.625 1 6 C0.34 5.34 -0.32 4.68 -1 4 C-0.625 1.875 -0.625 1.875 0 0 Z " fill="#EFEEEA" transform="translate(373,234)"/>
<path d="M0 0 C2.9375 0.75 2.9375 0.75 6 2 C6.6875 4.0625 6.6875 4.0625 7 6 C7.99 6.33 8.98 6.66 10 7 C10.33 7.99 10.66 8.98 11 10 C8 10 8 10 5 8 C5.33 7.01 5.66 6.02 6 5 C4.02 5.66 2.04 6.32 0 7 C-0.99 5.68 -1.98 4.36 -3 3 C-2.01 2.67 -1.02 2.34 0 2 C0 1.34 0 0.68 0 0 Z " fill="#F3F2ED" transform="translate(378,236)"/>
<path d="M0 0 C3.5 1.3125 3.5 1.3125 4.9375 3.4375 C5.2159375 4.365625 5.2159375 4.365625 5.5 5.3125 C3.19 4.9825 0.88 4.6525 -1.5 4.3125 C-1.83 5.6325 -2.16 6.9525 -2.5 8.3125 C-2.83 7.3225 -3.16 6.3325 -3.5 5.3125 C-4.16 4.9825 -4.82 4.6525 -5.5 4.3125 C-5.5 2.9925 -5.5 1.6725 -5.5 0.3125 C-3.5 -0.6875 -3.5 -0.6875 0 0 Z " fill="#D4D3D0" transform="translate(163.5,328.6875)"/>
<path d="M0 0 C1.32 0.33 2.64 0.66 4 1 C4 1.66 4 2.32 4 3 C4.66 3.33 5.32 3.66 6 4 C6.33 4.66 6.66 5.32 7 6 C10.63 6 14.26 6 18 6 C18 6.99 18 7.98 18 9 C16.06318839 9.08107583 14.1254066 9.13922475 12.1875 9.1875 C11.10855469 9.22230469 10.02960938 9.25710938 8.91796875 9.29296875 C6 9 6 9 4.21875 7.6875 C2.47850361 5.27792807 1.25414946 2.68746312 0 0 Z " fill="#8B8B8A" transform="translate(376,283)"/>
<path d="M0 0 C0.66 0.66 1.32 1.32 2 2 C1.7578125 4.1640625 1.7578125 4.1640625 1.125 6.625 C0.92132813 7.44226563 0.71765625 8.25953125 0.5078125 9.1015625 C0.34023438 9.72804688 0.17265625 10.35453125 0 11 C-0.66 11 -1.32 11 -2 11 C-2.99 8.69 -3.98 6.38 -5 4 C-3.35 2.68 -1.7 1.36 0 0 Z " fill="#BBBBB9" transform="translate(313,346)"/>
<path d="M0 0 C1.65 0.33 3.3 0.66 5 1 C4.67 2.98 4.34 4.96 4 7 C-0.75 8.125 -0.75 8.125 -3 7 C-3 6.01 -3 5.02 -3 4 C-2.34 4 -1.68 4 -1 4 C-0.67 2.68 -0.34 1.36 0 0 Z " fill="#F2F1EC" transform="translate(418,171)"/>
<path d="M0 0 C2.05078125 0.03255208 4.1015625 0.06510417 6.15234375 0.09765625 C5.49234375 1.74765625 4.83234375 3.39765625 4.15234375 5.09765625 C3.47171875 4.87078125 2.79109375 4.64390625 2.08984375 4.41015625 C-2.0029328 3.97475449 -4.17898584 5.2992884 -7.84765625 7.09765625 C-7.18765625 5.11765625 -6.52765625 3.13765625 -5.84765625 1.09765625 C-4.85765625 1.09765625 -3.86765625 1.09765625 -2.84765625 1.09765625 C-1.84765625 0.09765625 -1.84765625 0.09765625 0 0 Z " fill="#E2E1DD" transform="translate(63.84765625,244.90234375)"/>
<path d="M0 0 C0.99 0.66 1.98 1.32 3 2 C3.99 2 4.98 2 6 2 C6 2.66 6 3.32 6 4 C7.98 4.66 9.96 5.32 12 6 C12 6.33 12 6.66 12 7 C6.62374766 7.84888195 2.34629602 8.0024305 -3 7 C-2.2575 6.38125 -2.2575 6.38125 -1.5 5.75 C0.43386092 3.87797662 0.43386092 3.87797662 0 0 Z " fill="#CBCAC7" transform="translate(267,285)"/>
<path d="M0 0 C2.31 0.33 4.62 0.66 7 1 C6.67 2.32 6.34 3.64 6 5 C5.34 5 4.68 5 4 5 C4 5.66 4 6.32 4 7 C3.34 7 2.68 7 2 7 C1.67 7.99 1.34 8.98 1 10 C-1.16666667 3.5 -1.16666667 3.5 0 0 Z " fill="#D0CFCB" transform="translate(381,260)"/>
<path d="M0 0 C0.99 0.33 1.98 0.66 3 1 C2.67 1.763125 2.34 2.52625 2 3.3125 C0.82563314 5.99069135 0.82563314 5.99069135 1 9 C-0.32 9 -1.64 9 -3 9 C-3.33 7.02 -3.66 5.04 -4 3 C-3.34 3 -2.68 3 -2 3 C-2 2.34 -2 1.68 -2 1 C-1.34 0.67 -0.68 0.34 0 0 Z " fill="#F2F1ED" transform="translate(363,211)"/>
<path d="M0 0 C0.38133299 1.9914056 0.71325582 3.99279077 1 6 C0 7 0 7 -2.5625 7.0625 C-3.7690625 7.0315625 -3.7690625 7.0315625 -5 7 C-5.33 5.35 -5.66 3.7 -6 2 C-3 0 -3 0 0 0 Z " fill="#AAABA8" transform="translate(277,186)"/>
<path d="M0 0 C0.33 0.99 0.66 1.98 1 3 C3.64 3.33 6.28 3.66 9 4 C9 4.33 9 4.66 9 5 C6.03 5 3.06 5 0 5 C0 5.66 0 6.32 0 7 C-2.90548882 9.04169485 -4.40142046 10 -8 10 C-6.625 8 -6.625 8 -5 6 C-4.34 6 -3.68 6 -3 6 C-2.814375 5.071875 -2.814375 5.071875 -2.625 4.125 C-2 2 -2 2 0 0 Z " fill="#838382" transform="translate(357,223)"/>
<path d="M0 0 C1.98 0 3.96 0 6 0 C6 1.65 6 3.3 6 5 C4.02 5.33 2.04 5.66 0 6 C-1.125 2.25 -1.125 2.25 0 0 Z " fill="#A4A4A4" transform="translate(295,147)"/>
<path d="M0 0 C-1.32 2.31 -2.64 4.62 -4 7 C-4.99 6.67 -5.98 6.34 -7 6 C-7 4.68 -7 3.36 -7 2 C-7.99 1.67 -8.98 1.34 -10 1 C-9.401875 0.855625 -8.80375 0.71125 -8.1875 0.5625 C-2.61290323 -0.87096774 -2.61290323 -0.87096774 0 0 Z " fill="#9F9E9C" transform="translate(165,334)"/>
<path d="M0 0 C0 1.65 0 3.3 0 5 C-3.3 4.01 -6.6 3.02 -10 2 C-9 0 -9 0 -7.25 -0.6875 C-4.60760177 -1.05449975 -2.57327078 -0.64331769 0 0 Z " fill="#B4B4B3" transform="translate(308,344)"/>
<path d="M0 0 C1.32 0 2.64 0 4 0 C4 0.66 4 1.32 4 2 C4.66 2 5.32 2 6 2 C6 2.66 6 3.32 6 4 C6.639375 4.2475 7.27875 4.495 7.9375 4.75 C10 6 10 6 10.75 8.125 C10.87375 9.053125 10.87375 9.053125 11 10 C10.01 10.495 10.01 10.495 9 11 C8.34 9.35 7.68 7.7 7 6 C5.02 6 3.04 6 1 6 C0.67 4.02 0.34 2.04 0 0 Z " fill="#AAA9A6" transform="translate(280,229)"/>
<path d="M0 0 C2.31 0.66 4.62 1.32 7 2 C7 2.66 7 3.32 7 4 C6.36191406 4.18175781 5.72382813 4.36351562 5.06640625 4.55078125 C4.24011719 4.80214844 3.41382813 5.05351562 2.5625 5.3125 C1.32693359 5.67794922 1.32693359 5.67794922 0.06640625 6.05078125 C-0.61550781 6.36402344 -1.29742187 6.67726562 -2 7 C-2.33 7.99 -2.66 8.98 -3 10 C-3 9.01 -3 8.02 -3 7 C-3.66 6.67 -4.32 6.34 -5 6 C-3.35 5.34 -1.7 4.68 0 4 C0 2.68 0 1.36 0 0 Z " fill="#959493" transform="translate(232,159)"/>
<path d="M0 0 C1.65 0 3.3 0 5 0 C5.66 1.32 6.32 2.64 7 4 C6.34 4.66 5.68 5.32 5 6 C2.375 5.625 2.375 5.625 0 5 C0 3.35 0 1.7 0 0 Z " fill="#989898" transform="translate(160,189)"/>
<path d="M0 0 C0.99 0 1.98 0 3 0 C3.66 0.66 4.32 1.32 5 2 C7.06874034 2.6425235 7.06874034 2.6425235 9 3 C9 3.66 9 4.32 9 5 C1.25 5.125 1.25 5.125 -1 4 C-0.67 2.68 -0.34 1.36 0 0 Z " fill="#F2F3EF" transform="translate(403,286)"/>
<path d="M0 0 C2.8125 -0.25 2.8125 -0.25 6 0 C7.875 2 7.875 2 9 4 C8.34 4.66 7.68 5.32 7 6 C4.69 5.01 2.38 4.02 0 3 C0 2.01 0 1.02 0 0 Z " fill="#AEAFAB" transform="translate(216,160)"/>
<path d="M0 0 C0.99 0.66 1.98 1.32 3 2 C1.515 4.475 1.515 4.475 0 7 C3.3 7.33 6.6 7.66 10 8 C10 8.33 10 8.66 10 9 C6.04 9 2.08 9 -2 9 C-1.125 1.125 -1.125 1.125 0 0 Z " fill="#787976" transform="translate(402,283)"/>
<path d="M0 0 C0.928125 0.2784375 0.928125 0.2784375 1.875 0.5625 C4.04160178 1.23686176 4.04160178 1.23686176 6 0 C6.33 1.32 6.66 2.64 7 4 C4.75 5.1875 4.75 5.1875 2 6 C-0.3125 4.625 -0.3125 4.625 -2 3 C-1.34 2.01 -0.68 1.02 0 0 Z " fill="#F2F0EA" transform="translate(57,265)"/>
<path d="M0 0 C2.97 0.99 5.94 1.98 9 3 C9 3.33 9 3.66 9 4 C4.71 4.66 0.42 5.32 -4 6 C-4 5.34 -4 4.68 -4 4 C-3.01 3.34 -2.02 2.68 -1 2 C-0.67 1.34 -0.34 0.68 0 0 Z " fill="#B8B7B1" transform="translate(265,250)"/>
<path d="M0 0 C0.66 0 1.32 0 2 0 C2.33 1.98 2.66 3.96 3 6 C-0.96 6 -4.92 6 -9 6 C-9 5.67 -9 5.34 -9 5 C-6.69 5 -4.38 5 -2 5 C-2 4.34 -2 3.68 -2 3 C-1.34 3 -0.68 3 0 3 C0 2.01 0 1.02 0 0 Z " fill="#F2F2EE" transform="translate(338,232)"/>
<path d="M0 0 C3.63 1.65 7.26 3.3 11 5 C10.34 5.66 9.68 6.32 9 7 C6.375 6.625 6.375 6.625 4 6 C3.67 5.01 3.34 4.02 3 3 C2.01 2.67 1.02 2.34 0 2 C0 1.34 0 0.68 0 0 Z " fill="#9B9A99" transform="translate(314,340)"/>
<path d="M0 0 C-0.33 1.32 -0.66 2.64 -1 4 C-4.68754757 3.50168276 -6.60490662 2.89932357 -9 0 C-5.62182575 -0.84454356 -3.32534757 -1.10844919 0 0 Z " fill="#BDBDB9" transform="translate(287,239)"/>
<path d="M0 0 C0.66 0 1.32 0 2 0 C3.25664978 2.90600261 4 4.79604584 4 8 C4.66 8.33 5.32 8.66 6 9 C5.01 9 4.02 9 3 9 C3 8.01 3 7.02 3 6 C1.68 6 0.36 6 -1 6 C-1.042721 4.33388095 -1.04063832 2.66617115 -1 1 C-0.67 0.67 -0.34 0.34 0 0 Z " fill="#979796" transform="translate(226,150)"/>
<path d="M0 0 C0.99 0.33 1.98 0.66 3 1 C3.33 2.65 3.66 4.3 4 6 C1.69 6.33 -0.62 6.66 -3 7 C-2.01 4.69 -1.02 2.38 0 0 Z " fill="#898888" transform="translate(159,323)"/>
<path d="M0 0 C0.99 0.33 1.98 0.66 3 1 C2.67 2.65 2.34 4.3 2 6 C3.32 6.66 4.64 7.32 6 8 C3.69 8 1.38 8 -1 8 C-1.93065133 5.39417629 -2.14917407 4.35801776 -1.0625 1.75 C-0.711875 1.1725 -0.36125 0.595 0 0 Z " fill="#F4F3F0" transform="translate(445,283)"/>
<path d="M0 0 C1.65322266 0.01740234 1.65322266 0.01740234 3.33984375 0.03515625 C4.99693359 0.04869141 4.99693359 0.04869141 6.6875 0.0625 C7.54214844 0.07410156 8.39679688 0.08570313 9.27734375 0.09765625 C9.27734375 0.42765625 9.27734375 0.75765625 9.27734375 1.09765625 C5.97734375 1.42765625 2.67734375 1.75765625 -0.72265625 2.09765625 C-1.38265625 3.74765625 -2.04265625 5.39765625 -2.72265625 7.09765625 C-3.38265625 7.09765625 -4.04265625 7.09765625 -4.72265625 7.09765625 C-3.68524525 0.1321824 -3.68524525 0.1321824 0 0 Z " fill="#63625F" transform="translate(212.72265625,226.90234375)"/>
<path d="M0 0 C-0.125 1.8125 -0.125 1.8125 -1 4 C-3.9375 5.8125 -3.9375 5.8125 -7 7 C-7.66 6.67 -8.32 6.34 -9 6 C-4.53846154 0 -4.53846154 0 0 0 Z " fill="#C7C6C3" transform="translate(386,163)"/>
<path d="M0 0 C1.32 0 2.64 0 4 0 C4 1.65 4 3.3 4 5 C2.35 5 0.7 5 -1 5 C-0.67 3.35 -0.34 1.7 0 0 Z " fill="#A3A3A3" transform="translate(222,335)"/>
<path d="M0 0 C0.66 0 1.32 0 2 0 C2.33 1.32 2.66 2.64 3 4 C3.66 4 4.32 4 5 4 C5 4.66 5 5.32 5 6 C2.69 6 0.38 6 -2 6 C-1.34 4.02 -0.68 2.04 0 0 Z " fill="#E4E3DE" transform="translate(375,224)"/>
<path d="M0 0 C0.38800781 0.66515625 0.77601563 1.3303125 1.17578125 2.015625 C0.51578125 2.015625 -0.14421875 2.015625 -0.82421875 2.015625 C-1.15421875 2.675625 -1.48421875 3.335625 -1.82421875 4.015625 C-2.15421875 3.355625 -2.48421875 2.695625 -2.82421875 2.015625 C-4.9426816 1.32833246 -4.9426816 1.32833246 -7.38671875 0.890625 C-8.21300781 0.72304687 -9.03929687 0.55546875 -9.890625 0.3828125 C-10.52871094 0.26164063 -11.16679687 0.14046875 -11.82421875 0.015625 C-11.82421875 -0.314375 -11.82421875 -0.644375 -11.82421875 -0.984375 C-10.22434639 -1.26052558 -8.61888575 -1.50445125 -7.01171875 -1.734375 C-6.11839844 -1.87359375 -5.22507812 -2.0128125 -4.3046875 -2.15625 C-1.82421875 -1.984375 -1.82421875 -1.984375 0 0 Z " fill="#BDBCB6" transform="translate(362.82421875,205.984375)"/>
<path d="M0 0 C0.33 0.66 0.66 1.32 1 2 C1.66 2.33 2.32 2.66 3 3 C3 4.98 3 6.96 3 9 C1.02 7.35 -0.96 5.7 -3 4 C-2.67 3.01 -2.34 2.02 -2 1 C-1.34 0.67 -0.68 0.34 0 0 Z " fill="#AFAEAC" transform="translate(408,161)"/>
<path d="M0 0 C0.66 0.33 1.32 0.66 2 1 C2 3.97 2 6.94 2 10 C1.01 10.495 1.01 10.495 0 11 C0 10.34 0 9.68 0 9 C-0.99 8.67 -1.98 8.34 -3 8 C-1.68 7.67 -0.36 7.34 1 7 C0.67 4.69 0.34 2.38 0 0 Z M-4 9 C-3.34 9 -2.68 9 -2 9 C-2.33 9.66 -2.66 10.32 -3 11 C-3.33 10.34 -3.66 9.68 -4 9 Z " fill="#B0B0AD" transform="translate(390,247)"/>
<path d="M0 0 C1.67542976 0.28604898 3.34385343 0.61781233 5 1 C4 3 4 3 2 6 C2.66 6.33 3.32 6.66 4 7 C3.34 7.66 2.68 8.32 2 9 C1.01 6.36 0.02 3.72 -1 1 C-0.67 0.67 -0.34 0.34 0 0 Z " fill="#BBBBB7" transform="translate(383,226)"/>
<path d="M0 0 C-1.32 1.65 -2.64 3.3 -4 5 C-4.33 4.01 -4.66 3.02 -5 2 C-7.97 1.505 -7.97 1.505 -11 1 C-11 0.67 -11 0.34 -11 0 C-3.57142857 -1.28571429 -3.57142857 -1.28571429 0 0 Z " fill="#CDCCC8" transform="translate(278,281)"/>
<path d="M0 0 C-0.66 1.32 -1.32 2.64 -2 4 C-4.4375 3.625 -4.4375 3.625 -7 3 C-7.33 2.34 -7.66 1.68 -8 1 C-2.25 -1.125 -2.25 -1.125 0 0 Z " fill="#F3F3EE" transform="translate(70,246)"/>
<path d="M0 0 C1.32 1.65 2.64 3.3 4 5 C2.35 6.32 0.7 7.64 -1 9 C-2.0326802 6.21176345 -2.04509293 5.1322726 -1.0625 2.25 C-0.711875 1.5075 -0.36125 0.765 0 0 Z " fill="#B1B0AE" transform="translate(59,240)"/>
<path d="M0 0 C1.60031344 3.20062687 0.03173691 5.72271806 -1 9 C-1.66 9 -2.32 9 -3 9 C-2.4140625 2.84765625 -2.4140625 2.84765625 -2 1 C-1.34 0.67 -0.68 0.34 0 0 Z " fill="#CECECA" transform="translate(63,234)"/>
<path d="M0 0 C1 3 1 3 0.3125 5.125 C-1 7 -1 7 -3.125 7.75 C-4.053125 7.87375 -4.053125 7.87375 -5 8 C-1.125 1.125 -1.125 1.125 0 0 Z " fill="#A7A7A2" transform="translate(346,196)"/>
<path d="M0 0 C1.74627478 2.61941217 2.38722388 4.03824877 3 7 C1.35 7 -0.3 7 -2 7 C-1.34 4.69 -0.68 2.38 0 0 Z " fill="#F0F0EC" transform="translate(45,284)"/>
<path d="M0 0 C0.99 0.33 1.98 0.66 3 1 C4.1875 3.5625 4.1875 3.5625 5 6 C4.01 6 3.02 6 2 6 C1.67 5.01 1.34 4.02 1 3 C0.34 3 -0.32 3 -1 3 C-0.67 2.01 -0.34 1.02 0 0 Z " fill="#A2A39F" transform="translate(249,279)"/>
<path d="M0 0 C0.66 0.33 1.32 0.66 2 1 C1.67 2.65 1.34 4.3 1 6 C-0.32 5.67 -1.64 5.34 -3 5 C-1.125 1.125 -1.125 1.125 0 0 Z " fill="#DCDAD5" transform="translate(263,248)"/>
<path d="M0 0 C6.64615385 1.47692308 6.64615385 1.47692308 8.4375 4.125 C8.7159375 5.053125 8.7159375 5.053125 9 6 C5.06326356 4.68775452 2.77280706 3.08089673 0 0 Z " fill="#989895" transform="translate(253,256)"/>
<path d="M0 0 C1.32 0.33 2.64 0.66 4 1 C4 1.66 4 2.32 4 3 C4.66 3.33 5.32 3.66 6 4 C6 5.32 6 6.64 6 8 C5.34 8 4.68 8 4 8 C2.68 5.36 1.36 2.72 0 0 Z " fill="#A4A4A2" transform="translate(376,283)"/>
<path d="M0 0 C4.8 3.44615385 4.8 3.44615385 5.8125 6.25 C5.874375 6.8275 5.93625 7.405 6 8 C5.01 7.67 4.02 7.34 3 7 C2.67 6.01 2.34 5.02 2 4 C1.01 3.67 0.02 3.34 -1 3 C-0.67 2.01 -0.34 1.02 0 0 Z " fill="#858380" transform="translate(382,235)"/>
<path d="M0 0 C2.31 0 4.62 0 7 0 C6.34 1.32 5.68 2.64 5 4 C3.35 3.67 1.7 3.34 0 3 C0 2.01 0 1.02 0 0 Z " fill="#F4F4F0" transform="translate(108,229)"/>
<path d="M0 0 C0.99 0 1.98 0 3 0 C2.43628586 3.26954202 1.50037734 4.82575883 -1 7 C-2 4 -2 4 -1.0625 1.8125 C-0.5365625 0.9153125 -0.5365625 0.9153125 0 0 Z " fill="#B3B2AF" transform="translate(415,186)"/>
<path d="M0 0 C1.65 0 3.3 0 5 0 C4.67 0.99 4.34 1.98 4 3 C2.35 3.33 0.7 3.66 -1 4 C-0.67 2.68 -0.34 1.36 0 0 Z " fill="#C3C1BE" transform="translate(280,287)"/>
<path d="M0 0 C1.485 0.99 1.485 0.99 3 2 C2.34 2.66 1.68 3.32 1 4 C0.83318891 7.08347826 0.83318891 7.08347826 1 10 C0.34 10 -0.32 10 -1 10 C-1.02689216 8.52093108 -1.04634621 7.04172517 -1.0625 5.5625 C-1.07410156 4.73878906 -1.08570313 3.91507813 -1.09765625 3.06640625 C-1 1 -1 1 0 0 Z " fill="#8B8B87" transform="translate(262,238)"/>
<path d="M0 0 C1.32 0.33 2.64 0.66 4 1 C4 1.99 4 2.98 4 4 C2.68 4 1.36 4 0 4 C0 2.68 0 1.36 0 0 Z " fill="#9D9D9D" transform="translate(328,174)"/>
<path d="" fill="#000000" transform="translate(0,0)"/>
<path d="" fill="#000000" transform="translate(0,0)"/>
<path d="" fill="#000000" transform="translate(0,0)"/>
<path d="" fill="#000000" transform="translate(0,0)"/>
<path d="" fill="#000000" transform="translate(0,0)"/>
<path d="" fill="#000000" transform="translate(0,0)"/>
<path d="" fill="#000000" transform="translate(0,0)"/>
<path d="" fill="#000000" transform="translate(0,0)"/>
<path d="" fill="#000000" transform="translate(0,0)"/>
<path d="" fill="#000000" transform="translate(0,0)"/>
<path d="" fill="#000000" transform="translate(0,0)"/>
<path d="" fill="#000000" transform="translate(0,0)"/>
<path d="" fill="#000000" transform="translate(0,0)"/>
<path d="" fill="#000000" transform="translate(0,0)"/>
<path d="" fill="#000000" transform="translate(0,0)"/>
<path d="" fill="#000000" transform="translate(0,0)"/>
<path d="" fill="#000000" transform="translate(0,0)"/>
<path d="" fill="#000000" transform="translate(0,0)"/>
<path d="" fill="#000000" transform="translate(0,0)"/>
<path d="" fill="#000000" transform="translate(0,0)"/>
<path d="" fill="#000000" transform="translate(0,0)"/>
<path d="" fill="#000000" transform="translate(0,0)"/>
<path d="" fill="#000000" transform="translate(0,0)"/>
<path d="" fill="#000000" transform="translate(0,0)"/>
<path d="" fill="#000000" transform="translate(0,0)"/>
<path d="" fill="#000000" transform="translate(0,0)"/>
<path d="" fill="#000000" transform="translate(0,0)"/>
<path d="" fill="#000000" transform="translate(0,0)"/>
<path d="" fill="#000000" transform="translate(0,0)"/>
<path d="" fill="#000000" transform="translate(0,0)"/>
<path d="" fill="#000000" transform="translate(0,0)"/>
<path d="" fill="#000000" transform="translate(0,0)"/>
<path d="" fill="#000000" transform="translate(0,0)"/>
<path d="" fill="#000000" transform="translate(0,0)"/>
<path d="" fill="#000000" transform="translate(0,0)"/>
<path d="" fill="#000000" transform="translate(0,0)"/>
<path d="" fill="#000000" transform="translate(0,0)"/>
<path d="" fill="#000000" transform="translate(0,0)"/>
<path d="" fill="#000000" transform="translate(0,0)"/>
<path d="" fill="#000000" transform="translate(0,0)"/>
<path d="" fill="#000000" transform="translate(0,0)"/>
<path d="" fill="#000000" transform="translate(0,0)"/>
<path d="" fill="#000000" transform="translate(0,0)"/>
<path d="" fill="#000000" transform="translate(0,0)"/>
<path d="" fill="#000000" transform="translate(0,0)"/>
<path d="" fill="#000000" transform="translate(0,0)"/>
<path d="" fill="#000000" transform="translate(0,0)"/>
<path d="" fill="#000000" transform="translate(0,0)"/>
<path d="" fill="#000000" transform="translate(0,0)"/>
<path d="" fill="#000000" transform="translate(0,0)"/>
<path d="" fill="#000000" transform="translate(0,0)"/>
<path d="" fill="#000000" transform="translate(0,0)"/>
<path d="" fill="#000000" transform="translate(0,0)"/>
<path d="" fill="#000000" transform="translate(0,0)"/>
<path d="" fill="#000000" transform="translate(0,0)"/>
<path d="" fill="#000000" transform="translate(0,0)"/>
<path d="" fill="#000000" transform="translate(0,0)"/>
<path d="" fill="#000000" transform="translate(0,0)"/>
<path d="" fill="#000000" transform="translate(0,0)"/>
<path d="" fill="#000000" transform="translate(0,0)"/>
<path d="" fill="#000000" transform="translate(0,0)"/>
<path d="" fill="#000000" transform="translate(0,0)"/>
<path d="" fill="#000000" transform="translate(0,0)"/>
<path d="" fill="#000000" transform="translate(0,0)"/>
<path d="" fill="#000000" transform="translate(0,0)"/>
<path d="" fill="#000000" transform="translate(0,0)"/>
<path d="" fill="#000000" transform="translate(0,0)"/>
<path d="" fill="#000000" transform="translate(0,0)"/>
<path d="" fill="#000000" transform="translate(0,0)"/>
<path d="" fill="#000000" transform="translate(0,0)"/>
<path d="" fill="#000000" transform="translate(0,0)"/>
<path d="" fill="#000000" transform="translate(0,0)"/>
<path d="" fill="#000000" transform="translate(0,0)"/>
<path d="" fill="#000000" transform="translate(0,0)"/>
<path d="" fill="#000000" transform="translate(0,0)"/>
<path d="" fill="#000000" transform="translate(0,0)"/>
<path d="" fill="#000000" transform="translate(0,0)"/>
<path d="" fill="#000000" transform="translate(0,0)"/>
<path d="" fill="#000000" transform="translate(0,0)"/>
<path d="" fill="#000000" transform="translate(0,0)"/>
<path d="" fill="#000000" transform="translate(0,0)"/>
<path d="" fill="#000000" transform="translate(0,0)"/>
<path d="" fill="#000000" transform="translate(0,0)"/>
<path d="" fill="#000000" transform="translate(0,0)"/>
<path d="" fill="#000000" transform="translate(0,0)"/>
</svg>
