<?xml version="1.0" encoding="UTF-8"?>
<svg version="1.1" xmlns="http://www.w3.org/2000/svg" width="500" height="500">
<path d="M0 0 C0.71590805 -0.00241196 1.4318161 -0.00482391 2.16941833 -0.00730896 C3.67639734 -0.00633321 5.18341339 0.00699583 6.69018555 0.03198242 C8.99326432 0.06636401 11.29251711 0.05261545 13.59570312 0.03320312 C15.06381836 0.04010048 16.53192374 0.04977188 18 0.0625 C18.6855043 0.05754013 19.37100861 0.05258026 20.07728577 0.04747009 C23.11366063 0.12210801 25.11265254 0.4163859 27.66381836 2.10571289 C30.18027276 5.69345689 31.64023982 9.48114998 33.18359375 13.56640625 C33.6935791 14.8802832 33.6935791 14.8802832 34.21386719 16.22070312 C35.29706606 19.01971288 36.36514818 21.82423663 37.43359375 24.62890625 C38.15143283 26.4847276 38.87017405 28.34020028 39.58984375 30.1953125 C49.45120003 55.71734958 49.45120003 55.71734958 50.43359375 62.62890625 C49.2890625 64.8671875 49.2890625 64.8671875 47.62109375 66.94140625 C47.07839844 67.63878906 46.53570312 68.33617187 45.9765625 69.0546875 C45.46738281 69.57417969 44.95820313 70.09367187 44.43359375 70.62890625 C43.77359375 70.62890625 43.11359375 70.62890625 42.43359375 70.62890625 C42.04880859 71.47775391 42.04880859 71.47775391 41.65625 72.34375 C39.84539374 75.72825771 37.40357348 78.53493956 34.9921875 81.5078125 C33.26023785 83.63743976 33.26023785 83.63743976 32.43359375 86.62890625 C33.50843018 86.70407471 33.50843018 86.70407471 34.60498047 86.78076172 C37.8402776 87.01234199 41.07435967 87.25794293 44.30859375 87.50390625 C45.43652344 87.58253906 46.56445312 87.66117187 47.7265625 87.7421875 C49.34111328 87.86787109 49.34111328 87.86787109 50.98828125 87.99609375 C51.98327637 88.06940918 52.97827148 88.14272461 54.00341797 88.21826172 C56.43359375 88.62890625 56.43359375 88.62890625 58.43359375 90.62890625 C59.91623533 93.627137 60.54207654 96.28073285 60.43359375 99.62890625 C58.93734854 102.76767763 57.1722347 105.43337393 55.1328125 108.24609375 C53.28183387 110.59527877 53.28183387 110.59527877 52.43359375 113.62890625 C51.77359375 113.62890625 51.11359375 113.62890625 50.43359375 113.62890625 C50.31886719 114.19351563 50.20414063 114.758125 50.0859375 115.33984375 C49.35454601 117.90628334 48.30121123 119.92465976 46.99609375 122.25390625 C46.20525391 123.67509766 46.20525391 123.67509766 45.3984375 125.125 C45.09534668 125.66495605 44.79225586 126.20491211 44.47998047 126.76123047 C43.25116214 128.95452497 42.03158024 131.15284077 40.8125 133.3515625 C38.35696636 137.77963116 35.89660249 142.20499174 33.43359375 146.62890625 C33.76359375 146.95890625 34.09359375 147.28890625 34.43359375 147.62890625 C35.75359375 145.31890625 37.07359375 143.00890625 38.43359375 140.62890625 C39.09359375 140.62890625 39.75359375 140.62890625 40.43359375 140.62890625 C40.72234375 139.86578125 41.01109375 139.10265625 41.30859375 138.31640625 C42.43359375 135.62890625 42.43359375 135.62890625 44.43359375 132.62890625 C45.09359375 132.62890625 45.75359375 132.62890625 46.43359375 132.62890625 C46.67464844 131.92636719 46.91570312 131.22382813 47.1640625 130.5 C49.60925092 124.97011233 53.74064475 120.38157105 57.43359375 115.62890625 C57.93761719 114.943125 58.44164062 114.25734375 58.9609375 113.55078125 C60.92387348 110.96698054 62.10180974 109.73212794 65.24609375 108.75390625 C65.96796875 108.71265625 66.68984375 108.67140625 67.43359375 108.62890625 C68.55859375 110.94140625 68.55859375 110.94140625 69.43359375 113.62890625 C68.77359375 114.61890625 68.11359375 115.60890625 67.43359375 116.62890625 C66.77359375 116.62890625 66.11359375 116.62890625 65.43359375 116.62890625 C65.09328125 117.86640625 65.09328125 117.86640625 64.74609375 119.12890625 C63.18418318 123.29400111 61.20509268 127.12900055 58.43359375 130.62890625 C57.77359375 130.62890625 57.11359375 130.62890625 56.43359375 130.62890625 C56.32402344 131.20511719 56.21445312 131.78132812 56.1015625 132.375 C55.35038115 134.90968795 54.2771851 136.54144858 52.74609375 138.69140625 C49.2342658 143.79333548 46.31913773 149.15455862 43.43359375 154.62890625 C44.42359375 154.62890625 45.41359375 154.62890625 46.43359375 154.62890625 C47.09359375 152.97890625 47.75359375 151.32890625 48.43359375 149.62890625 C49.09359375 149.62890625 49.75359375 149.62890625 50.43359375 149.62890625 C50.66949219 149.06429687 50.90539062 148.4996875 51.1484375 147.91796875 C52.72594317 145.10818662 54.67410661 143.23271574 56.99609375 141.00390625 C60.12401429 138.11819944 60.12401429 138.11819944 62.43359375 134.62890625 C63.09359375 134.62890625 63.75359375 134.62890625 64.43359375 134.62890625 C64.43359375 133.96890625 64.43359375 133.30890625 64.43359375 132.62890625 C65.09359375 132.62890625 65.75359375 132.62890625 66.43359375 132.62890625 C66.66433594 132.07847656 66.89507812 131.52804687 67.1328125 130.9609375 C68.80007028 127.97188976 70.87038915 125.77759347 73.24609375 123.31640625 C74.09816406 122.41277344 74.95023438 121.50914062 75.828125 120.578125 C78.43359375 118.62890625 78.43359375 118.62890625 81.2578125 118.8359375 C81.97582031 119.09761719 82.69382812 119.35929687 83.43359375 119.62890625 C82.36244095 122.05176013 81.25880948 123.83308576 79.5246582 125.85888672 C77.18002583 128.74583982 75.67653005 131.11010537 74.43359375 134.62890625 C75.1489194 140.42007302 77.32921703 145.42579547 79.62109375 150.75390625 C80.21370153 152.22691972 80.80150349 153.70187558 81.38452148 155.17871094 C82.52580246 158.05640657 83.68872225 160.92353845 84.87207031 163.78417969 C86.77529928 168.41749907 88.41658668 173.12668832 89.99609375 177.87890625 C91.15598636 181.3043835 92.21688092 184.27027981 94.0859375 187.36328125 C95.43359375 189.62890625 95.43359375 189.62890625 95.43359375 192.62890625 C96.09359375 192.62890625 96.75359375 192.62890625 97.43359375 192.62890625 C97.99046875 193.35078125 98.54734375 194.07265625 99.12109375 194.81640625 C101.18396659 197.32530565 102.51702216 198.40720615 105.18359375 200.06640625 C107.015625 201.29296875 107.015625 201.29296875 108.43359375 202.62890625 C108.87109375 205.94140625 108.87109375 205.94140625 108.43359375 208.62890625 C107.77359375 208.62890625 107.11359375 208.62890625 106.43359375 208.62890625 C106.43359375 209.28890625 106.43359375 209.94890625 106.43359375 210.62890625 C97.48896244 210.69837391 88.54442379 210.7517009 79.59958172 210.78434277 C75.44625518 210.80000814 71.293113 210.82126207 67.13989258 210.85522461 C63.1328379 210.88778735 59.12596071 210.9057527 55.11878395 210.91353798 C53.5889284 210.91908707 52.05908272 210.92992301 50.5293026 210.94609642 C48.3887052 210.9678304 46.24884402 210.97087497 44.1081543 210.96948242 C42.88903854 210.97614426 41.66992279 210.98280609 40.41386414 210.9896698 C37.43359375 210.62890625 37.43359375 210.62890625 35.54768372 209.29512024 C33.76164162 206.62394609 33.91499287 204.74051152 34.43359375 201.62890625 C37.46036278 199.20749102 40.85510223 198.04827431 44.43359375 196.62890625 C44.60087324 184.17853312 40.68517029 172.22258527 36.43359375 160.62890625 C35.35033776 159.32066164 35.35033776 159.32066164 32.73179626 159.50865173 C31.52600418 159.51087234 30.3202121 159.51309296 29.07788086 159.51538086 C28.41449203 159.51523483 27.75110321 159.51508881 27.06761169 159.51493835 C24.86535419 159.51563744 22.6631803 159.5234296 20.4609375 159.53125 C18.93779039 159.53311419 17.41464268 159.53453809 15.89149475 159.53553772 C11.87521724 159.53936279 7.85897567 159.54919297 3.8427124 159.5602417 C-0.25263991 159.57045606 -4.34799801 159.57503539 -8.44335938 159.58007812 C-16.48439153 159.59081525 -24.52539442 159.60789153 -32.56640625 159.62890625 C-34.22345221 162.81569631 -35.18518332 165.74773686 -36.00390625 169.25390625 C-36.93819274 173.17695615 -37.98434292 176.98975074 -39.25390625 180.81640625 C-41.00447971 186.49889602 -41.4603454 191.94708881 -39.56640625 197.62890625 C-38.61765625 197.93828125 -37.66890625 198.24765625 -36.69140625 198.56640625 C-33.56640625 199.62890625 -33.56640625 199.62890625 -31.62890625 201.44140625 C-30.24583463 204.28890664 -30.5547945 205.67188728 -31.56640625 208.62890625 C-34.23369095 211.29619095 -35.52716539 210.88724996 -39.25366211 210.90356445 C-40.44507309 210.91309647 -41.63648407 210.92262848 -42.86399841 210.93244934 C-44.15669144 210.93153793 -45.44938446 210.93062653 -46.78125 210.9296875 C-48.11642084 210.93357336 -49.45159044 210.9379078 -50.78675842 210.94267273 C-53.58696497 210.95013999 -56.38704546 210.94984021 -59.18725586 210.94458008 C-62.77655467 210.93878646 -66.36533729 210.95571065 -69.95455074 210.97892475 C-72.7126416 210.99365429 -75.47060794 210.99453487 -78.22873116 210.99141502 C-80.19579971 210.99217859 -82.16284893 211.00605989 -84.12986755 211.02009583 C-85.92171227 211.01075264 -85.92171227 211.01075264 -87.74975586 211.0012207 C-88.80295517 211.00185013 -89.85615448 211.00247955 -90.94126892 211.00312805 C-93.56640625 210.62890625 -93.56640625 210.62890625 -95.4143219 209.28141785 C-96.56640625 207.62890625 -96.56640625 207.62890625 -96.81640625 204.81640625 C-95.16547053 200.60652017 -92.83900693 199.48728516 -88.98828125 197.31640625 C-83.61517034 193.57256123 -80.98643162 189.01986032 -78.69140625 183.00390625 C-78.32414429 182.04979858 -78.32414429 182.04979858 -77.94946289 181.07641602 C-74.91796778 173.10315557 -72.15788966 165.02762274 -69.37597656 156.96484375 C-66.51126011 148.69897916 -63.52550501 140.47462675 -60.5234375 132.2578125 C-59.88998038 130.51774458 -59.26228409 128.7755677 -58.640625 127.03125 C-56.73299767 121.70088392 -54.69619455 116.43661519 -52.56640625 111.19140625 C-50.29223791 105.58799179 -48.28753 99.9367026 -46.42578125 94.18359375 C-45.32558779 90.91301866 -43.93209068 87.79729413 -42.56640625 84.62890625 C-41.30165556 81.137365 -40.06884464 77.6359088 -38.84765625 74.12890625 C-37.54347922 70.56627632 -36.06667955 67.11291688 -34.56640625 63.62890625 C-33.55603127 61.05704266 -32.58995632 58.46954926 -31.62890625 55.87890625 C-31.23433228 54.82086792 -31.23433228 54.82086792 -30.83178711 53.74145508 C-29.09611439 49.07912859 -27.38701101 44.40751189 -25.69140625 39.73046875 C-25.13453125 38.19519531 -25.13453125 38.19519531 -24.56640625 36.62890625 C-24.31246094 35.92862305 -24.05851562 35.22833984 -23.796875 34.50683594 C-21.74880915 28.86997889 -19.67155767 23.24468919 -17.56640625 17.62890625 C-17.10878906 16.40300781 -16.65117187 15.17710937 -16.1796875 13.9140625 C-15.56673828 12.34978516 -15.56673828 12.34978516 -14.94140625 10.75390625 C-14.59851563 9.86960938 -14.255625 8.9853125 -13.90234375 8.07421875 C-10.50608962 1.85768341 -6.92637343 -0.13435843 0 0 Z M2.43359375 56.62890625 C-1.51493987 65.95372533 -4.6875127 75.54695735 -7.94140625 85.12890625 C-8.49847161 86.76179597 -9.05576204 88.39460893 -9.61328125 90.02734375 C-10.71984704 93.27035485 -11.82059236 96.51525738 -12.91699219 99.76171875 C-14.03590454 103.07419371 -15.17155413 106.38033836 -16.31738281 109.68359375 C-16.87190122 111.30072762 -17.42626897 112.91791316 -17.98046875 114.53515625 C-18.24105072 115.27640747 -18.50163269 116.01765869 -18.77011108 116.78137207 C-20.10667337 120.71121236 -20.56640625 123.38615593 -20.56640625 127.62890625 C-5.38640625 127.62890625 9.79359375 127.62890625 25.43359375 127.62890625 C26.62491364 124.05494657 26.19313537 123.36966788 24.83984375 119.96484375 C23.04424271 115.27375891 21.36421219 110.55824301 19.77734375 105.79296875 C19.5462793 105.10088318 19.31521484 104.40879761 19.07714844 103.69573975 C18.60136047 102.26874397 18.12626987 100.84151551 17.65185547 99.4140625 C16.93680703 97.26357012 16.21856527 95.11416321 15.5 92.96484375 C12.98884789 85.43392635 10.55493741 77.88970048 8.27392578 70.28491211 C6.76314589 65.50984691 4.68216228 61.09721551 2.43359375 56.62890625 Z " fill="#E7E5E3" transform="translate(242.56640625,146.37109375)"/>
<path d="M0 0 C1.71725994 28.38249071 -9.53055525 54.79583288 -25 78 C-25.66 78 -26.32 78 -27 78 C-27.268125 78.7425 -27.53625 79.485 -27.8125 80.25 C-28.95276751 82.89061949 -30.09380306 84.85552844 -32 87 C-32.66 87 -33.32 87 -34 87 C-34.309375 87.61875 -34.61875 88.2375 -34.9375 88.875 C-35.625 90.25 -36.3125 91.625 -37 93 C-37.66 93 -38.32 93 -39 93 C-40.90468977 96.2294852 -41.25971258 98.6671022 -41.30859375 102.39453125 C-41.33373047 103.43287109 -41.35886719 104.47121094 -41.38476562 105.54101562 C-41.41973206 107.71022974 -41.45102271 109.87950642 -41.47851562 112.04882812 C-41.70346985 120.92080313 -43.62639937 126.89297982 -49 134 C-49.66 134 -50.32 134 -51 134 C-51.2475 134.7425 -51.495 135.485 -51.75 136.25 C-53.09147301 139.20124062 -54.60905526 140.84814974 -57 143 C-59.22148064 139.66777905 -60.04894478 136.51029619 -61 132.6875 C-62.1711328 128.0624404 -63.43364933 123.51025082 -65 119 C-66.65 119 -68.3 119 -70 119 C-70 119.66 -70 120.32 -70 121 C-72.53899138 121.9435441 -73.60909275 122.16906025 -76.140625 121.07421875 C-76.83671875 120.61660156 -77.5328125 120.15898437 -78.25 119.6875 C-78.95640625 119.23761719 -79.6628125 118.78773438 -80.390625 118.32421875 C-80.92171875 117.88722656 -81.4528125 117.45023437 -82 117 C-82 116.34 -82 115.68 -82 115 C-82.56332031 114.74605469 -83.12664062 114.49210937 -83.70703125 114.23046875 C-88.0665024 111.89105919 -91.70905256 108.67655341 -95 105 C-96.20277365 100.99075451 -96.42448152 97.95689311 -95 94 C-101.0615263 91.86459406 -106.54876694 91.76146134 -112.9375 91.875 C-114.3925293 91.88853516 -114.3925293 91.88853516 -115.87695312 91.90234375 C-118.25156407 91.92573893 -120.62564776 91.95851824 -123 92 C-123 88 -123 88 -121.56640625 86.39453125 C-120.90511719 85.87246094 -120.24382812 85.35039062 -119.5625 84.8125 C-115.44086496 81.43027018 -111.76251456 77.7680233 -108.078125 73.91796875 C-104.66195572 70.76507568 -101.90585691 69.7943393 -97.3125 69.4375 C-94.35818712 69.40493693 -94.35818712 69.40493693 -92 68 C-90.00041636 67.95919217 -87.99954746 67.95745644 -86 68 C-85.79375 67.34 -85.5875 66.68 -85.375 66 C-83.50875748 61.92819814 -81.02438473 58.31203002 -78 55 C-77.34 55 -76.68 55 -76 55 C-75.34 53.02 -74.68 51.04 -74 49 C-73.34 49 -72.68 49 -72 49 C-71.7525 48.46375 -71.505 47.9275 -71.25 47.375 C-69.69347463 44.4176018 -67.96564327 41.70275949 -66 39 C-65.34 39 -64.68 39 -64 39 C-63.773125 38.46375 -63.54625 37.9275 -63.3125 37.375 C-60.50905122 32.30209268 -56.72583538 28.3208573 -52 25 C-51.34 25 -50.68 25 -50 25 C-50 24.34 -50 23.68 -50 23 C-49.34 23 -48.68 23 -48 23 C-48 22.34 -48 21.68 -48 21 C-35.96186142 11.28741092 -15.70604221 -0.62745737 0 0 Z M-44 37 C-47.34240953 40.26854413 -48.88412867 43.02337022 -49.4375 47.6875 C-49.04564127 50.65443035 -48.59610729 52.50608236 -47 55 C-46.34 55 -45.68 55 -45 55 C-45 55.66 -45 56.32 -45 57 C-41.34387956 59.33991708 -38.26792624 59.37437949 -34 59 C-30.50336097 57.56955676 -29.24046717 56.37313872 -27.1875 53.1875 C-25.9099099 49.75817921 -25.53766817 47.62159932 -26 44 C-27.24471981 41.1447024 -27.24471981 41.1447024 -29 39 C-29.66 39 -30.32 39 -31 39 C-31 38.34 -31 37.68 -31 37 C-37.60531087 35.76104406 -37.60531087 35.76104406 -44 37 Z " fill="#E7E5E3" transform="translate(406,137)"/>
<path d="M0 0 C2 1 2 1 3 3.8125 C3.33 4.864375 3.66 5.91625 4 7 C5.0252409 9.72879775 5.61337633 10.77388796 8.1640625 12.265625 C8.97617188 12.59046875 9.78828125 12.9153125 10.625 13.25 C11.44226563 13.58515625 12.25953125 13.9203125 13.1015625 14.265625 C13.72804687 14.50796875 14.35453125 14.7503125 15 15 C13.00705778 17.1639343 11.96972327 18.01118923 9.125 19.0625 C4.50169503 21.92894908 3.07543926 26.10526936 1 31 C-0.85861731 28.63587962 -2.10088465 26.75283262 -3.25 23.9375 C-5.62597067 19.94926352 -7.67879087 19.46758046 -12 18 C-12 17.34 -12 16.68 -12 16 C-12.66 16 -13.32 16 -14 16 C-13 14 -13 14 -9.625 12.5625 C-5.7452068 10.89017534 -3.82879635 9.78378804 -2.05078125 5.95703125 C-1.80714844 5.24933594 -1.56351563 4.54164063 -1.3125 3.8125 C-1.06113281 3.09707031 -0.80976563 2.38164062 -0.55078125 1.64453125 C-0.36902344 1.10183594 -0.18726563 0.55914062 0 0 Z " fill="#DEDAD9" transform="translate(178,154)"/>
<path d="M0 0 C0.5775 0.226875 1.155 0.45375 1.75 0.6875 C2.375 2.5 2.375 2.5 2.75 4.6875 C1.76 6.1725 1.76 6.1725 0.75 7.6875 C0.09 7.6875 -0.57 7.6875 -1.25 7.6875 C-1.476875 8.5125 -1.70375 9.3375 -1.9375 10.1875 C-3.52426232 14.41886618 -5.75748237 17.93921013 -8.25 21.6875 C-10.23 21.0275 -12.21 20.3675 -14.25 19.6875 C-14.25 14.34674599 -13.71245925 12.54894103 -10.5 8.1875 C-9.80390625 7.2284375 -9.1078125 6.269375 -8.390625 5.28125 C-3.61736226 -0.50241142 -3.61736226 -0.50241142 0 0 Z " fill="#C6C2C2" transform="translate(309.25,255.3125)"/>
<path d="M0 0 C0.71800781 0.26167969 1.43601562 0.52335937 2.17578125 0.79296875 C0.11682064 5.22443726 -2.70518425 9.11630118 -5.4609375 13.13671875 C-7.06569066 15.64943133 -7.06569066 15.64943133 -6.53125 18.13671875 C-6.29792969 18.68328125 -6.06460937 19.22984375 -5.82421875 19.79296875 C-6.48421875 19.79296875 -7.14421875 19.79296875 -7.82421875 19.79296875 C-8.15421875 18.80296875 -8.48421875 17.81296875 -8.82421875 16.79296875 C-12.87853567 15.63459249 -15.04233994 15.95605618 -18.82421875 17.79296875 C-18.82421875 17.13296875 -18.82421875 16.47296875 -18.82421875 15.79296875 C-18.16421875 15.79296875 -17.50421875 15.79296875 -16.82421875 15.79296875 C-16.82421875 15.13296875 -16.82421875 14.47296875 -16.82421875 13.79296875 C-16.16421875 13.79296875 -15.50421875 13.79296875 -14.82421875 13.79296875 C-14.59347656 13.24253906 -14.36273438 12.69210937 -14.125 12.125 C-12.45774222 9.13595226 -10.38742335 6.94165597 -8.01171875 4.48046875 C-7.15964844 3.57683594 -6.30757813 2.67320312 -5.4296875 1.7421875 C-2.82421875 -0.20703125 -2.82421875 -0.20703125 0 0 Z " fill="#C7C4C3" transform="translate(323.82421875,265.20703125)"/>
<path d="M0 0 C0.66 0 1.32 0 2 0 C3.3540932 1.98600337 4.68457624 3.98817543 6 6 C7.29682374 7.36886951 8.61823134 8.7169291 10 10 C9.236875 10.391875 8.47375 10.78375 7.6875 11.1875 C4.74308242 13.17327 3.72532946 14.96013381 2 18 C1.34 18 0.68 18 0 18 C-0.66 16.02 -1.32 14.04 -2 12 C-2.66 12 -3.32 12 -4 12 C-4 11.34 -4 10.68 -4 10 C-4.99 10 -5.98 10 -7 10 C-7 9.34 -7 8.68 -7 8 C-6.030625 7.38125 -5.06125 6.7625 -4.0625 6.125 C-0.89459901 4.34963648 -0.89459901 4.34963648 -0.125 1.75 C-0.08375 1.1725 -0.0425 0.595 0 0 Z " fill="#E9E3E4" transform="translate(127,296)"/>
<path d="M0 0 C0.90105469 0.11988281 1.80210937 0.23976563 2.73046875 0.36328125 C3.41753906 0.47027344 4.10460937 0.57726562 4.8125 0.6875 C4.1525 2.3375 3.4925 3.9875 2.8125 5.6875 C2.1525 5.6875 1.4925 5.6875 0.8125 5.6875 C0.565 6.43 0.3175 7.1725 0.0625 7.9375 C-1.27897301 10.88874062 -2.79655526 12.53564974 -5.1875 14.6875 C-7.13248034 11.77002948 -7.58138356 10.53643153 -8 7.1875 C-8.10957031 6.4140625 -8.21914063 5.640625 -8.33203125 4.84375 C-8.1875 2.6875 -8.1875 2.6875 -7.0234375 0.88671875 C-4.4847453 -0.77153339 -2.9641181 -0.42344544 0 0 Z " fill="#D1CCCB" transform="translate(354.1875,265.3125)"/>
<path d="M0 0 C3.29714793 0.32971479 4.6226839 0.6226839 7 3 C6.625 6.125 6.625 6.125 6 9 C0.56559513 10.32841008 0.56559513 10.32841008 -1.9375 8.875 C-3 7 -3 7 -2.8125 4.4375 C-2 2 -2 2 0 0 Z " fill="#F0EBEA" transform="translate(376,305)"/>
<path d="M0 0 C2 2 2 2 2.25 5.875 C2.18064077 9.05396475 1.80254921 11.29617618 0 14 C-1.98 13.34 -3.96 12.68 -6 12 C-6 6.69118637 -5.60742561 5.03182862 -2 1 C-1.34 0.67 -0.68 0.34 0 0 Z " fill="#D1CECC" transform="translate(301,263)"/>
<path d="M0 0 C2 0.6875 2 0.6875 4 2.6875 C4.4375 5.125 4.4375 5.125 4 7.6875 C1.5 9.5 1.5 9.5 -1 10.6875 C-2.65 9.0375 -4.3 7.3875 -6 5.6875 C-3.74810319 -0.58564112 -3.74810319 -0.58564112 0 0 Z " fill="#B1ADAD" transform="translate(142,228.3125)"/>
<path d="M0 0 C1.65 0.99 3.3 1.98 5 3 C3.8553125 3.8353125 3.8553125 3.8353125 2.6875 4.6875 C0.03204493 6.97242645 -1.2579107 9.0135612 -3 12 C-3.66 12 -4.32 12 -5 12 C-5.66 10.02 -6.32 8.04 -7 6 C-4.83312509 3.72478134 -2.54379491 1.84205838 0 0 Z " fill="#CECBCA" transform="translate(132,302)"/>
<path d="M0 0 C0.680625 0.309375 1.36125 0.61875 2.0625 0.9375 C0.41082443 4.5161304 -1.72036492 7.68570188 -3.9375 10.9375 C-6.40550047 9.78576645 -7.98533565 8.88966435 -9.9375 6.9375 C-3.86310175 -0.08219365 -3.86310175 -0.08219365 0 0 Z " fill="#BFBABA" transform="translate(323.9375,265.0625)"/>
<path d="M0 0 C1.32 0.33 2.64 0.66 4 1 C2.74425659 4.87187551 1.65992073 7.06837517 -2 9 C-5.25 9.1875 -5.25 9.1875 -8 9 C-8.33 9.99 -8.66 10.98 -9 12 C-9.66 11.67 -10.32 11.34 -11 11 C-8.19195732 8.03595495 -5.81684226 5.55500981 -2 4 C-2 3.34 -2 2.68 -2 2 C-1.34 2 -0.68 2 0 2 C0 1.34 0 0.68 0 0 Z " fill="#C6C2C1" transform="translate(358,158)"/>
<path d="M0 0 C2.97 0.99 5.94 1.98 9 3 C5.89448334 6.10551666 4.10801767 6.81323934 0 8 C-1.125 2.25 -1.125 2.25 0 0 Z " fill="#E0D9DA" transform="translate(184,166)"/>
<path d="M0 0 C2 1 2 1 2.6328125 2.84765625 C2.87644531 3.94400391 2.87644531 3.94400391 3.125 5.0625 C3.29257813 5.79597656 3.46015625 6.52945313 3.6328125 7.28515625 C3.75398437 7.85105469 3.87515625 8.41695312 4 9 C1.525 8.01 1.525 8.01 -1 7 C-1.20625 7.78375 -1.4125 8.5675 -1.625 9.375 C-3 12 -3 12 -6.125 13.3125 C-7.07375 13.539375 -8.0225 13.76625 -9 14 C-8.2575 13.360625 -7.515 12.72125 -6.75 12.0625 C-3.29672024 8.65841226 -1.73676741 4.45349856 0 0 Z " fill="#8D8788" transform="translate(178,154)"/>
<path d="M0 0 C1.32 0.33 2.64 0.66 4 1 C4.33 2.65 4.66 4.3 5 6 C4.01 6 3.02 6 2 6 C1.67 6.66 1.34 7.32 1 8 C1 7.34 1 6.68 1 6 C-0.32 6.33 -1.64 6.66 -3 7 C-3.33 6.34 -3.66 5.68 -4 5 C-3.525625 4.54625 -3.05125 4.0925 -2.5625 3.625 C-0.90972192 2.06741796 -0.90972192 2.06741796 0 0 Z " fill="#EFEBEA" transform="translate(177,161)"/>
<path d="M0 0 C0.88492145 2.47778006 1.11637742 3.66056586 0.25 6.1875 C-1 8 -1 8 -4 9 C-4.66 8.01 -5.32 7.02 -6 6 C-5.34 5.67 -4.68 5.34 -4 5 C-4 4.01 -4 3.02 -4 2 C-2.68 1.34 -1.36 0.68 0 0 Z " fill="#F1EEEB" transform="translate(398,174)"/>
<path d="M0 0 C0.66 0 1.32 0 2 0 C2 1.32 2 2.64 2 4 C2.66 4 3.32 4 4 4 C3.67 3.01 3.34 2.02 3 1 C6 2 6 2 6.9375 3.8125 C7 6 7 6 5.0625 8.25 C4.381875 8.8275 3.70125 9.405 3 10 C2.49818809 8.52144705 1.99859924 7.04213942 1.5 5.5625 C1.2215625 4.73878906 0.943125 3.91507812 0.65625 3.06640625 C0 1 0 1 0 0 Z " fill="#CCC7C7" transform="translate(263,255)"/>
<path d="M0 0 C1.56393356 3.97376829 0.36145292 6.81377903 -0.9375 10.75 C-1.31777344 11.92046875 -1.69804687 13.0909375 -2.08984375 14.296875 C-2.39019531 15.18890625 -2.69054687 16.0809375 -3 17 C-5 14 -5 14 -5 11 C-4.34 11 -3.68 11 -3 11 C-3.3403125 10.13375 -3.3403125 10.13375 -3.6875 9.25 C-4 7 -4 7 -2.625 4.9375 C-2.08875 4.298125 -1.5525 3.65875 -1 3 C-0.67 2.01 -0.34 1.02 0 0 Z " fill="#9D9897" transform="translate(206,312)"/>
<path d="M0 0 C0.66 0 1.32 0 2 0 C2.99 1.98 3.98 3.96 5 6 C4.13375 6.103125 3.2675 6.20625 2.375 6.3125 C-1.16683123 7.03398414 -3.84312042 8.27123261 -7 10 C-7 9.34 -7 8.68 -7 8 C-6.030625 7.38125 -5.06125 6.7625 -4.0625 6.125 C-0.89459901 4.34963648 -0.89459901 4.34963648 -0.125 1.75 C-0.08375 1.1725 -0.0425 0.595 0 0 Z " fill="#A29E9D" transform="translate(127,296)"/>
<path d="M0 0 C0.609375 1.86328125 0.609375 1.86328125 1 4 C-1.21867135 6.77333918 -2.60620325 7.86873442 -6 9 C-7.66710346 10.49985609 -7.66710346 10.49985609 -9 12 C-9.33 11.34 -9.66 10.68 -10 10 C-9.34 10 -8.68 10 -8 10 C-7.79375 9.46375 -7.5875 8.9275 -7.375 8.375 C-5.42003056 4.9982346 -2.81776305 2.69525161 0 0 Z " fill="#939291" transform="translate(301,286)"/>
<path d="M0 0 C0.99 0.66 1.98 1.32 3 2 C2.67 3.98 2.34 5.96 2 8 C0.02 8.33 -1.96 8.66 -4 9 C-4.33 8.34 -4.66 7.68 -5 7 C-3.02 6.34 -1.04 5.68 1 5 C0.67 3.35 0.34 1.7 0 0 Z " fill="#BBB8B7" transform="translate(380,306)"/>
<path d="M0 0 C2.31 0 4.62 0 7 0 C6.1875 2.4375 6.1875 2.4375 5 5 C4.01 5.33 3.02 5.66 2 6 C1.34 4.02 0.68 2.04 0 0 Z " fill="#A5A0A1" transform="translate(125,308)"/>
<path d="M0 0 C3.96 0 7.92 0 12 0 C7.78622182 3.16033363 6.9510716 3.43052797 2 3 C1.34 2.67 0.68 2.34 0 2 C0 1.34 0 0.68 0 0 Z " fill="#F1EFEC" transform="translate(285,236)"/>
<path d="M0 0 C0.66 0 1.32 0 2 0 C2.33 0.99 2.66 1.98 3 3 C2.67 3.66 2.34 4.32 2 5 C1.34 5 0.68 5 0 5 C-0.66 6.32 -1.32 7.64 -2 9 C-2.33 9 -2.66 9 -3 9 C-3 7.35 -3 5.7 -3 4 C-2.01 3.67 -1.02 3.34 0 3 C0 2.01 0 1.02 0 0 Z " fill="#B6B1B1" transform="translate(285,212)"/>
<path d="M0 0 C2.64 0 5.28 0 8 0 C7.67 1.32 7.34 2.64 7 4 C5.35 4 3.7 4 2 4 C2 3.34 2 2.68 2 2 C1.34 2 0.68 2 0 2 C0 1.34 0 0.68 0 0 Z " fill="#BDB7B8" transform="translate(164,168)"/>
<path d="M0 0 C3 3.625 3 3.625 3 7 C2.34 7 1.68 7 1 7 C0.67 7.99 0.34 8.98 0 10 C-0.66 9.67 -1.32 9.34 -2 9 C-1.34 6.03 -0.68 3.06 0 0 Z " fill="#F2EEEB" transform="translate(275,164)"/>
<path d="M0 0 C2.15473199 1.5801368 4.10646634 3.10646634 6 5 C5.34 5.66 4.68 6.32 4 7 C4.33 7.33 4.66 7.66 5 8 C5.04063832 9.66617115 5.042721 11.33388095 5 13 C3.09610151 10.14415227 2.30537823 8.0688238 1.375 4.8125 C0.98441406 3.46091797 0.98441406 3.46091797 0.5859375 2.08203125 C0.39257812 1.39496094 0.19921875 0.70789063 0 0 Z " fill="#93908E" transform="translate(250,217)"/>
<path d="M0 0 C2 1 2 1 3 3 C0.8614515 5.1385485 -0.13275314 5.42655063 -3 6 C-3.33 4.68 -3.66 3.36 -4 2 C-2.125 0.9375 -2.125 0.9375 0 0 Z " fill="#F1EDEC" transform="translate(284,345)"/>
<path d="M0 0 C0.66 0.66 1.32 1.32 2 2 C1.67 2.99 1.34 3.98 1 5 C-0.65 5.33 -2.3 5.66 -4 6 C-3.6875 4.125 -3.6875 4.125 -3 2 C-2.01 1.34 -1.02 0.68 0 0 Z " fill="#DAD6D5" transform="translate(301,263)"/>
<path d="M0 0 C1.32 1.32 2.64 2.64 4 4 C3.01 4 2.02 4 1 4 C0.67 4.66 0.34 5.32 0 6 C-1.65 6 -3.3 6 -5 6 C-3.35 4.02 -1.7 2.04 0 0 Z " fill="#C4C1C1" transform="translate(159,339)"/>
<path d="M0 0 C0.33 0.66 0.66 1.32 1 2 C-0.3125 4.625 -0.3125 4.625 -2 7 C-2.66 7 -3.32 7 -4 7 C-4.33 8.32 -4.66 9.64 -5 11 C-5.66 11 -6.32 11 -7 11 C-6.34 9.35 -5.68 7.7 -5 6 C-4.34 6 -3.68 6 -3 6 C-2.690625 5.195625 -2.38125 4.39125 -2.0625 3.5625 C-1 1 -1 1 0 0 Z " fill="#A5A2A1" transform="translate(292,273)"/>
<path d="M0 0 C1.32 0 2.64 0 4 0 C3.34 2.97 2.68 5.94 2 9 C0.11656068 5.23312136 -0.22057835 3.97041037 0 0 Z " fill="#D0C8C7" transform="translate(226,246)"/>
<path d="M0 0 C2.64 0.99 5.28 1.98 8 3 C7.01 3.99 6.02 4.98 5 6 C4.01 6 3.02 6 2 6 C2 5.01 2 4.02 2 3 C1.34 2.67 0.68 2.34 0 2 C0 1.34 0 0.68 0 0 Z " fill="#9994A2" transform="translate(185,166)"/>
<path d="M0 0 C0.66 0 1.32 0 2 0 C2 0.66 2 1.32 2 2 C3.98 1.34 5.96 0.68 8 0 C8 0.66 8 1.32 8 2 C8.66 2.33 9.32 2.66 10 3 C5.545 3.495 5.545 3.495 1 4 C0.67 2.68 0.34 1.36 0 0 Z " fill="#E2E0DE" transform="translate(279,353)"/>
<path d="M0 0 C0.598125 0.226875 1.19625 0.45375 1.8125 0.6875 C-0.1675 1.6775 -0.1675 1.6775 -2.1875 2.6875 C-2.1875 3.6775 -2.1875 4.6675 -2.1875 5.6875 C-2.8475 6.3475 -3.5075 7.0075 -4.1875 7.6875 C-4.875 5.375 -4.875 5.375 -5.1875 2.6875 C-3.60587179 0.1901923 -2.97595617 -0.4251366 0 0 Z " fill="#A4A0A0" transform="translate(378.1875,305.3125)"/>
<path d="M0 0 C0.33 1.32 0.66 2.64 1 4 C0.360625 4.268125 -0.27875 4.53625 -0.9375 4.8125 C-3.33131686 5.88667752 -3.33131686 5.88667752 -4 9 C-4.66 9 -5.32 9 -6 9 C-6 8.34 -6 7.68 -6 7 C-5.34 7 -4.68 7 -4 7 C-3.71125 6.401875 -3.4225 5.80375 -3.125 5.1875 C-2 3 -2 3 0 0 Z " fill="#ADABAA" transform="translate(338,179)"/>
<path d="M0 0 C1.65 1.65 3.3 3.3 5 5 C3.02 5 1.04 5 -1 5 C-0.67 3.35 -0.34 1.7 0 0 Z " fill="#F0EFED" transform="translate(203,351)"/>
<path d="M0 0 C1.98 0.495 1.98 0.495 4 1 C3.67 1.99 3.34 2.98 3 4 C0.9375 4.6875 0.9375 4.6875 -1 5 C-0.67 3.35 -0.34 1.7 0 0 Z " fill="#DDDCDC" transform="translate(161,336)"/>
<path d="M0 0 C1.32 0.33 2.64 0.66 4 1 C4.33 2.98 4.66 4.96 5 7 C4.01 7.495 4.01 7.495 3 8 C2.01 5.36 1.02 2.72 0 0 Z " fill="#7F7A7B" transform="translate(175,177)"/>
<path d="M0 0 C0.66 0 1.32 0 2 0 C2 1.98 2 3.96 2 6 C0.35 5.67 -1.3 5.34 -3 5 C-2.01 4.67 -1.02 4.34 0 4 C0 2.68 0 1.36 0 0 Z " fill="#D2D1CF" transform="translate(349,349)"/>
<path d="M0 0 C0.99 1.32 1.98 2.64 3 4 C1.35 5.65 -0.3 7.3 -2 9 C-1.51421457 5.87709365 -1.0013988 3.00419641 0 0 Z " fill="#B0ACAC" transform="translate(178,290)"/>
<path d="M0 0 C0.66 0 1.32 0 2 0 C1.67 1.32 1.34 2.64 1 4 C2.32 3.34 3.64 2.68 5 2 C5 3.32 5 4.64 5 6 C3.35 5.67 1.7 5.34 0 5 C0 3.35 0 1.7 0 0 Z " fill="#F5EEEE" transform="translate(138,231)"/>
<path d="M0 0 C0.33 0.66 0.66 1.32 1 2 C1.99 2 2.98 2 4 2 C3.34 3.32 2.68 4.64 2 6 C1.01 5.67 0.02 5.34 -1 5 C-0.67 3.35 -0.34 1.7 0 0 Z " fill="#C7C4C2" transform="translate(379,187)"/>
<path d="" fill="#000000" transform="translate(0,0)"/>
<path d="" fill="#000000" transform="translate(0,0)"/>
<path d="" fill="#000000" transform="translate(0,0)"/>
<path d="" fill="#000000" transform="translate(0,0)"/>
<path d="" fill="#000000" transform="translate(0,0)"/>
<path d="" fill="#000000" transform="translate(0,0)"/>
<path d="" fill="#000000" transform="translate(0,0)"/>
<path d="" fill="#000000" transform="translate(0,0)"/>
<path d="" fill="#000000" transform="translate(0,0)"/>
<path d="" fill="#000000" transform="translate(0,0)"/>
<path d="" fill="#000000" transform="translate(0,0)"/>
<path d="" fill="#000000" transform="translate(0,0)"/>
<path d="" fill="#000000" transform="translate(0,0)"/>
<path d="" fill="#000000" transform="translate(0,0)"/>
<path d="" fill="#000000" transform="translate(0,0)"/>
<path d="" fill="#000000" transform="translate(0,0)"/>
<path d="" fill="#000000" transform="translate(0,0)"/>
<path d="" fill="#000000" transform="translate(0,0)"/>
<path d="" fill="#000000" transform="translate(0,0)"/>
<path d="" fill="#000000" transform="translate(0,0)"/>
<path d="" fill="#000000" transform="translate(0,0)"/>
<path d="" fill="#000000" transform="translate(0,0)"/>
<path d="" fill="#000000" transform="translate(0,0)"/>
<path d="" fill="#000000" transform="translate(0,0)"/>
<path d="" fill="#000000" transform="translate(0,0)"/>
<path d="" fill="#000000" transform="translate(0,0)"/>
<path d="" fill="#000000" transform="translate(0,0)"/>
<path d="" fill="#000000" transform="translate(0,0)"/>
<path d="" fill="#000000" transform="translate(0,0)"/>
<path d="" fill="#000000" transform="translate(0,0)"/>
<path d="" fill="#000000" transform="translate(0,0)"/>
<path d="" fill="#000000" transform="translate(0,0)"/>
<path d="" fill="#000000" transform="translate(0,0)"/>
<path d="" fill="#000000" transform="translate(0,0)"/>
<path d="" fill="#000000" transform="translate(0,0)"/>
<path d="" fill="#000000" transform="translate(0,0)"/>
<path d="" fill="#000000" transform="translate(0,0)"/>
<path d="" fill="#000000" transform="translate(0,0)"/>
<path d="" fill="#000000" transform="translate(0,0)"/>
<path d="" fill="#000000" transform="translate(0,0)"/>
<path d="" fill="#000000" transform="translate(0,0)"/>
<path d="" fill="#000000" transform="translate(0,0)"/>
<path d="" fill="#000000" transform="translate(0,0)"/>
<path d="" fill="#000000" transform="translate(0,0)"/>
<path d="" fill="#000000" transform="translate(0,0)"/>
<path d="" fill="#000000" transform="translate(0,0)"/>
<path d="" fill="#000000" transform="translate(0,0)"/>
<path d="" fill="#000000" transform="translate(0,0)"/>
<path d="" fill="#000000" transform="translate(0,0)"/>
<path d="" fill="#000000" transform="translate(0,0)"/>
<path d="" fill="#000000" transform="translate(0,0)"/>
<path d="" fill="#000000" transform="translate(0,0)"/>
<path d="" fill="#000000" transform="translate(0,0)"/>
<path d="" fill="#000000" transform="translate(0,0)"/>
<path d="" fill="#000000" transform="translate(0,0)"/>
<path d="" fill="#000000" transform="translate(0,0)"/>
<path d="" fill="#000000" transform="translate(0,0)"/>
<path d="" fill="#000000" transform="translate(0,0)"/>
<path d="" fill="#000000" transform="translate(0,0)"/>
<path d="" fill="#000000" transform="translate(0,0)"/>
<path d="" fill="#000000" transform="translate(0,0)"/>
<path d="" fill="#000000" transform="translate(0,0)"/>
<path d="" fill="#000000" transform="translate(0,0)"/>
<path d="" fill="#000000" transform="translate(0,0)"/>
<path d="" fill="#000000" transform="translate(0,0)"/>
<path d="" fill="#000000" transform="translate(0,0)"/>
<path d="" fill="#000000" transform="translate(0,0)"/>
<path d="" fill="#000000" transform="translate(0,0)"/>
<path d="" fill="#000000" transform="translate(0,0)"/>
<path d="" fill="#000000" transform="translate(0,0)"/>
<path d="" fill="#000000" transform="translate(0,0)"/>
<path d="" fill="#000000" transform="translate(0,0)"/>
<path d="" fill="#000000" transform="translate(0,0)"/>
<path d="" fill="#000000" transform="translate(0,0)"/>
<path d="" fill="#000000" transform="translate(0,0)"/>
<path d="" fill="#000000" transform="translate(0,0)"/>
<path d="" fill="#000000" transform="translate(0,0)"/>
<path d="" fill="#000000" transform="translate(0,0)"/>
<path d="" fill="#000000" transform="translate(0,0)"/>
<path d="" fill="#000000" transform="translate(0,0)"/>
<path d="" fill="#000000" transform="translate(0,0)"/>
<path d="" fill="#000000" transform="translate(0,0)"/>
</svg>
